<svg width="288" height="197" viewBox="0 0 288 197" fill="none" xmlns="http://www.w3.org/2000/svg">
<path d="M214.961 42.6166C220.865 35.1567 230.078 30.9287 239.517 30.5496C244.366 30.8323 249.111 32.0596 253.611 33.8587C259.181 37.0714 264.196 41.4921 267.152 47.2879C274.672 60.7748 269.856 80.0061 256.29 87.7488C241.893 98.1001 219.809 91.4755 212.07 75.9838C212.192 74.4931 212.437 73.0088 212.385 71.5053C212.45 69.0251 212.514 66.5449 212.578 64.0647C212.945 62.7153 213.351 61.3724 213.782 60.0488C214.877 60.0488 217.066 60.0423 218.161 60.0423C219.48 60.1387 221.869 60.2865 221.476 58.2689C221.187 58.089 220.594 57.7227 220.305 57.5428C217.33 57.3758 214.342 57.5043 211.381 57.6456C209.14 58.905 209.971 61.6615 210.099 63.8012C210.016 64.3602 209.848 65.4654 209.765 66.018C208.264 64.6044 209.295 62.6768 208.986 60.9355C208.535 54.3237 211.271 47.969 214.961 42.6166ZM236.942 40.8175C231.476 41.672 226.878 46.2791 226.022 51.7214L225.398 51.7535C225.243 56.0843 225.333 60.4214 225.552 64.7522C225.024 67.4444 226.215 71.3318 222.983 72.5012C221.315 72.0322 219.461 74.0176 219.674 75.6433C218.598 77.0376 216.654 82.6084 220.021 81.0535C233.195 81.6382 246.452 81.2527 259.651 81.1177C260.095 81.1627 260.984 81.2527 261.428 81.2976C261.499 78.0207 259.941 74.5188 256.863 73.0088C253.457 72.0258 253.354 68.2348 253.489 65.3883C253.798 60.8455 253.727 56.2899 253.689 51.7407L253.058 51.7214C252.729 48.3673 250.785 44.5828 247.154 43.9466C247.669 42.7065 245.904 40.9974 244.681 41.6785C243.851 41.3315 243.052 40.7532 242.119 40.8046L242.086 40.2006C240.535 40.4641 237.521 39.3782 236.942 40.8175Z" fill="#FDFDFD"/>
<path d="M95.1834 34.4563C95.6276 32.4258 99.0015 32.5929 99.4329 34.5848C98.7053 35.5807 97.9133 37.7075 96.3745 36.5895C95.2285 36.4546 95.3379 35.3237 95.1834 34.4563Z" fill="#FDFDFD"/>
<path d="M103.631 33.0298C104.088 33.0684 105.015 33.1519 105.472 33.1905C106.799 34.1029 107.101 37.3734 104.951 36.9686C102.562 37.3413 102.762 34.4177 103.631 33.0298Z" fill="#FDFDFD"/>
<path d="M110.044 36.3197C109.921 34.2378 111.029 32.368 113.34 33.0555C113.456 34.0965 114.441 35.4844 113.224 36.1976C112.497 37.4248 111.093 36.4225 110.044 36.3197Z" fill="#FDFDFD"/>
<path d="M35.2015 37.3477C43.9837 34.6362 54.3756 35.8763 61.7864 41.505C69.9699 46.6582 75.2559 56.2063 75.2946 65.883C76.3248 72.4884 74.9018 68.4853 74.1743 67.0203C74.1099 66.2557 74.0197 65.4911 73.9038 64.7329C70.7554 63.0173 66.9437 64.2895 63.5635 63.9426C61.3679 63.7755 62.5268 67.136 64.3103 66.487C65.5852 66.5127 66.86 66.4613 68.1284 66.3585C69.9892 66.7119 73.6785 65.5425 71.5087 69.7319C70.8198 74.7694 73.1956 80.8928 69.5192 85.1208C61.1039 96.815 43.8485 101.82 30.8747 94.8167C24.1528 91.8867 19.3174 85.8725 15.9114 79.5692C13.1879 72.1221 12.338 63.6534 15.3448 56.1549C18.6929 47.3778 25.917 39.7251 35.2015 37.3477ZM38.6525 42.7451L38.6332 43.3876C37.3133 43.6061 35.9226 43.953 34.8345 44.7627C34.9503 45.5401 35.2208 46.2791 35.3367 47.0565C33.9974 47.6091 32.626 48.1681 31.6602 49.2926C31.5958 55.3775 32.1302 61.4688 32.3427 67.5858C35.0598 68.2347 35.723 71.0876 37.1717 73.1116C37.9507 74.6666 36.9077 76.2215 35.4397 76.8127C32.156 78.2134 28.647 79.0166 25.2925 80.231C23.0776 81.7281 21.6675 84.414 21.9058 87.0998C23.0003 87.2155 23.9661 86.6821 24.9319 86.2581C38.1053 86.7078 51.3301 86.3609 64.5228 86.3416C67.0982 88.6033 67.6713 84.0413 66.1067 82.5891C66.8665 81.3362 64.9993 79.4728 63.7502 80.231C60.7369 78.811 57.4275 78.2263 54.2726 77.2368C52.5535 76.44 50.242 75.0521 51.6714 72.5783C53.0621 72.0579 52.9462 70.3551 53.6223 69.25C54.5816 68.4725 55.6891 67.8942 56.584 67.0332C56.9317 64.9256 56.2878 62.8245 56.0882 60.7298C57.0154 56.7204 57.2343 51.8949 54.5301 48.5215C55.2641 47.2686 53.4227 45.4309 52.1671 46.1634C50.1712 44.5121 47.5829 43.8695 45.0911 43.394C43.4815 43.2334 40.2622 42.9057 38.6525 42.7451Z" fill="#FDFDFD"/>
<path d="M95.9367 43.3876C95.3121 40.9909 99.5874 41.8777 100.45 41.4857C128.355 41.4086 156.253 41.4728 184.158 41.46C187.436 39.5902 188.575 43.3748 187.513 45.3667L187.333 45.9128C158.146 46.0542 128.954 45.8229 99.7612 46.0349C98.2932 45.765 95.6083 45.4116 95.9367 43.3876Z" fill="#FDFDFD"/>
<path d="M88.9251 91.604C89.0217 77.8472 88.3392 64.0197 89.3307 50.3078C96.2586 50.5391 103.187 50.4235 110.114 50.4427C130.718 50.4556 151.321 50.4492 171.925 50.4427C173.052 50.4427 175.305 50.4427 176.432 50.4427C179.651 50.4877 182.858 50.462 186.09 50.4427C188.82 50.5263 191.595 50.2371 194.331 50.5391C195.439 51.2009 195.014 52.5953 195.123 53.6619C195.097 59.0143 195.065 64.3731 195.117 69.7254C196.05 72.9703 192.11 71.5117 190.082 71.6145C189.567 64.9835 182.883 59.5411 176.252 61.0961L175.737 61.1861C173.792 61.5909 171.313 61.5973 170.341 63.6598L169.987 63.9233C168.268 64.9192 167.154 66.5577 166.858 68.5175C166.793 68.768 166.652 69.2821 166.581 69.5391C165.931 71.1198 166.459 73.9855 163.143 72.5655C157.316 72.4562 151.463 72.0129 145.636 72.3599C144.529 73.7735 143.73 75.5405 144.265 77.4295C144.284 88.3592 143.872 99.3081 144.825 110.206C144.529 114.016 143.93 117.813 144.284 121.649C144.464 121.778 144.819 122.028 144.999 122.15C153.736 121.521 162.512 121.759 171.275 121.816C173.2 120.878 174.378 122.35 175.64 123.23C176.838 126.179 180.115 126.224 182.871 126.764C185.884 126.205 188.704 124.83 191.08 122.909C191.44 121.681 191.737 120.435 191.949 119.176C192.902 118.642 193.977 118.469 195.065 118.527C195.123 121.315 195.104 124.117 195.117 126.918C195.104 127.239 195.085 127.876 195.072 128.197C159.685 128.145 124.286 128.287 88.8993 128.133C88.8478 117.01 88.8027 105.875 88.9122 94.7525C90.0776 94.5983 90.979 95.0545 91.3138 96.2046L91.4941 96.6672C92.0414 99.6422 94.7649 101.197 97.1214 102.688C97.321 106.691 97.2309 110.707 97.2502 114.716C97.2051 116.657 97.16 118.623 97.2115 120.57C97.2309 120.859 97.2695 121.444 97.2888 121.733C110.359 122.061 123.468 121.251 136.526 122.195C138.109 122.028 140.286 121.155 138.457 118.559C137.221 98.0808 138.109 77.5195 137.717 57.0159C137.53 56.8425 137.169 56.4955 136.983 56.3284C126.308 56.0843 115.632 56.3027 104.957 56.2128C102.44 56.4826 99.6582 55.7951 97.3146 57.0031C97.0635 65.5296 97.3725 74.0562 97.2244 82.5827C97.1665 83.2381 96.9476 83.8421 96.5741 84.3947L96.0719 84.626C93.9987 85.6155 91.5198 87.1255 91.3975 89.6635L91.3009 90.1712C90.9725 91.3085 90.0776 91.7518 88.9251 91.604Z" fill="#FDFDFD"/>
<path d="M235.184 55.7116C237.418 54.3622 240.361 53.7454 242.003 51.6507C241.771 53.4049 243.091 54.4715 244.488 55.2104C248.345 57.3051 247.044 63.5506 243.393 65.2276C239.917 68.0548 233.124 65.2983 233.047 60.7234C232.763 58.3781 232.531 55.9943 235.184 55.7116Z" fill="#FDFDFD"/>
<path d="M38.131 56.3027C40.2686 56.3863 42.3869 56.7718 44.531 56.9003C46.0633 57.1894 47.5313 57.0738 48.9414 56.5533C50.1068 55.9622 50.7571 56.1035 50.8987 56.9645C50.4995 58.5388 50.5961 60.0166 51.182 61.3917C51.4782 62.2462 52.0899 62.7217 53.0106 62.8245C53.2746 63.5056 52.7402 63.9747 52.2959 64.4052C51.3172 67.5087 50.448 71.5374 46.8231 72.7518C45.1877 72.0579 41.7752 74.1911 40.6871 71.9936C40.1591 70.9977 39.3093 70.1174 38.292 69.6291C37.1137 68.3633 38.073 66.1722 36.8819 65.0606C36.502 64.1674 34.5061 65.1377 34.8151 63.9104C34.9568 61.5266 40.3201 64.0004 37.3326 59.4319C37.4549 58.3589 37.0429 56.9902 38.131 56.3027Z" fill="#FDFDFD"/>
<path d="M118.047 60.3572C119.779 60.4985 123.764 59.6504 122.934 62.5418C119.199 64.4116 115.259 61.7001 111.409 63.2807C109.052 62.786 102.588 64.9449 103.013 60.7555C107.996 60.3186 113.141 61.4366 118.047 60.3572Z" fill="#FDFDFD"/>
<path d="M103.013 66.5384C112.246 66.5127 121.485 66.4421 130.724 66.5513C130.744 67.483 130.937 68.6845 129.649 68.7038C122.129 69.5327 114.467 68.8966 106.889 69.0829C104.5 70.4772 102.581 68.5624 103.013 66.5384Z" fill="#FDFDFD"/>
<path d="M237.051 68.6524C238.088 68.8837 239.137 69.0058 240.2 69.0636C241.867 68.8709 242.782 70.2459 243.876 71.2226C244.082 71.4475 244.501 71.8972 244.713 72.1221C243.142 72.4498 241.649 73.0217 240.129 73.4972C238.616 73.4522 237.219 72.6554 235.796 72.1864C236.156 70.9913 236.556 69.8026 237.051 68.6524Z" fill="#FDFDFD"/>
<path d="M181.828 69.8989C182.549 70.1174 183.276 70.5543 182.562 71.3254C180.521 72.9317 178.93 75.0071 176.915 76.6392C175.576 75.7204 173.696 74.9108 173.734 73.0217C174.623 73.4458 175.46 74.0176 176.445 74.2297C176.76 74.0819 177.391 73.7799 177.7 73.6321C179.555 72.9831 180.636 71.3318 181.828 69.8989Z" fill="#FDFDFD"/>
<path d="M103.818 72.3856C112.529 72.2249 121.247 72.2185 129.952 72.3792C130.853 72.8996 130.724 73.9405 130.744 74.8401C121.942 74.8786 113.141 74.9043 104.339 74.8401C102.981 74.9108 102.556 72.9189 103.818 72.3856Z" fill="#FDFDFD"/>
<path d="M190.075 74.2361C192.013 74.4224 195.98 72.9831 195.117 76.1509C195.033 89.2395 195.2 102.334 195.052 115.423C193.996 115.301 192.986 114.967 191.981 114.639C191.26 111.639 189.271 109.647 186.727 108.162C185.987 103.53 187.12 98.8069 186.759 94.1421C187.069 89.3937 185.555 84.5425 187.268 79.929C187.506 79.6913 187.976 79.2094 188.215 78.9716C189.876 78.0978 189.76 75.8489 190.075 74.2361Z" fill="#FDFDFD"/>
<path d="M40.5712 75.5083C42.7346 75.7461 45.001 76.1766 47.1 75.3798C48.3426 75.3348 48.2975 76.44 48.3812 77.3653C46.044 79.4214 40.1527 79.5049 40.5712 75.5083Z" fill="#FDFDFD"/>
<path d="M168.107 81.2398C169.903 80.8414 170.541 82.5249 171.487 83.6493C172.71 83.977 173.96 84.2148 175.209 84.4461C176.889 84.8895 178.589 85.275 180.237 84.4718C181.003 84.7738 183.038 83.8614 182.877 85.1722C182.162 87.4532 184.145 90.9743 182.092 92.7799C177.688 92.9855 173.277 92.9277 168.88 92.7606C166.446 89.7985 168.86 84.7931 168.107 81.2398Z" fill="#FDFDFD"/>
<path d="M93.5287 92.3815C94.3142 90.4603 95.2156 88.5712 97.2116 87.6652C97.2888 91.1221 97.2824 94.5854 97.1987 98.0487C96.3681 97.8367 95.5633 97.5411 94.7585 97.2584C93.2518 96.1597 92.7174 94.1678 93.5287 92.3815Z" fill="#FDFDFD"/>
<path d="M163.065 96.134C164.347 95.4272 164.862 97.901 163.581 98.0295C162.473 98.113 161.868 96.558 163.065 96.134Z" fill="#FDFDFD"/>
<path d="M168.068 96.0954C172.562 96.0504 177.063 95.9862 181.564 96.0954C182.504 96.0311 183.006 97.0721 182.858 97.8881C179.007 98.8133 175.009 98.0551 171.088 98.2672C168.609 98.8712 167.598 98.1451 168.068 96.0954Z" fill="#FDFDFD"/>
<path d="M163.065 100.632C164.347 99.925 164.862 102.399 163.581 102.527C162.473 102.611 161.868 101.056 163.065 100.632Z" fill="#FDFDFD"/>
<path d="M168.042 100.593C172.974 100.58 177.919 100.452 182.858 100.606C182.858 101.062 182.858 101.975 182.858 102.431C178.492 102.437 174.166 103.395 169.82 102.938C168.306 103.44 167.804 101.775 168.042 100.593Z" fill="#FDFDFD"/>
<path d="M186.772 120.576C186.605 117.685 186.74 114.768 187.184 111.915C189.586 113.566 189.374 116.573 189.354 119.195C188.543 119.735 187.751 120.358 186.772 120.576Z" fill="#FDFDFD"/>
<path d="M222.803 121.167C229.995 117.633 238.461 118.424 245.937 120.525C254.893 124.155 262.452 131.859 265.027 141.253C266.901 149.902 265.819 159.392 260.932 166.897C257.011 172.905 250.682 177.326 243.818 179.337C228.733 184.464 210.46 175.102 205.76 159.913C203.114 152.202 203.229 143.117 207.292 135.888C207.556 134.796 208.2 134.108 209.211 133.826C209.346 140.482 209.159 147.145 209.32 153.809C210.235 153.879 212.07 154.033 212.99 154.111C214.439 153.295 220.137 156.661 219.635 153.327C219.648 149.452 214.078 152.138 211.909 151.264C211.664 143.83 211.902 136.383 211.889 128.942C215.179 125.903 218.476 122.665 222.803 121.167ZM228.707 126.963C227.812 127.702 228.018 128.916 227.754 129.932C226.209 130.632 224.374 131.345 223.846 133.132C221.863 136.833 223.234 141.035 223.421 144.999C222.255 145.501 222.268 148.758 223.402 149.292C223.53 150.66 225.391 150.891 225.964 152.022C226.447 152.806 226.814 153.674 227.458 154.355C228.243 156.173 227.194 157.452 226.614 159.045C223.852 160.427 220.71 160.806 217.813 161.808C215.276 162.875 213.042 165.567 213.885 168.529C214.278 169.544 214.941 169.069 215.566 168.574C228.752 168.773 241.958 168.78 255.144 168.504C257.893 169.673 256.94 166.19 256.045 164.835C256.799 163.575 254.938 161.718 253.689 162.476C250.038 160.356 244.887 161.204 242.234 157.593C241.578 155.537 243.316 153.757 243.979 151.945C244.507 150.686 247.083 151.238 246.658 149.388H247.257C247.263 146.991 247.43 144.479 246.458 142.243C248.622 138.445 246.226 133.382 243.818 130.131C244.546 128.878 242.73 127.06 241.475 127.728C239.524 126.982 237.624 129.096 235.68 127.529C233.394 126.892 231.07 126.706 228.707 126.963Z" fill="#FDFDFD"/>
<path d="M180.424 123.609C179.799 123.339 178.962 121.412 180.269 121.778C181.988 121.771 183.714 121.771 185.446 121.771L186.083 121.791C186.083 122.093 186.09 122.697 186.09 122.999C184.615 124.425 182.278 123.641 180.424 123.609Z" fill="#FDFDFD"/>
<path d="M28.1834 129.951C41.6722 119.645 63.1127 124.586 71.734 138.889C72.8736 141.202 75.6229 144.1 74.0712 146.786L73.4531 146.895L72.8479 147.01C72.6805 150.557 72.893 154.111 72.7062 157.664C71.8821 157.805 70.2274 158.094 69.4033 158.236C68.2379 158.403 65.8234 158.371 66.4093 160.183C68.431 162.342 72.2684 160.163 74.8181 160.96C75.1014 160.992 75.6616 161.056 75.9449 161.089C73.3501 177.075 56.6162 189.226 40.5648 186.071C28.4731 184.4 18.2229 174.717 15.3255 162.978C12.1513 150.834 17.2506 136.543 28.1834 129.951ZM37.5193 135.413C35.871 135.078 33.9588 136.993 34.2872 138.638C33.1089 140.938 32.2654 143.393 31.8598 145.957C30.9842 149.658 32.3491 153.847 30.1343 157.201C28.4538 156.488 27.4944 159.611 28.8015 160.183C29.0976 162.104 32.4715 161.416 32.2268 163.479C30.7331 164.243 29.2264 164.982 27.7134 165.696C26.4514 164.918 24.5778 166.801 25.3697 168.054C24.5262 169.872 23.3094 171.62 23.8373 173.811C26.96 174.839 26.6703 171.318 27.7713 169.416C28.7113 169.23 29.4067 168.574 30.1858 168.079C30.9906 169.879 31.1387 171.8 31.0035 173.785C40.5841 173.792 50.1647 173.959 59.7389 173.695C60.8785 173.303 60.2798 172.494 59.7969 171.806C59.9836 170.264 59.1594 167.598 61.252 167.546C60.8979 168.696 62.4431 170.213 63.5892 169.898C63.8596 171.189 64.2137 172.468 64.5357 173.753C66.1453 173.779 69.2423 174.627 66.757 170.81C65.5594 167.032 62.0311 164.989 58.6057 163.46C58.3804 161.686 60.8528 161.956 61.7671 160.864C61.8508 159.964 62.0117 158.943 61.4194 158.178C57.009 152.761 60.8914 145.083 57.1892 139.268C57.6013 137.244 55.1096 135.528 53.3196 135.387C52.0899 134.866 50.8343 134.423 49.5531 134.063C45.5418 135.246 41.1636 132.778 37.5193 135.413Z" fill="#FDFDFD"/>
<path d="M231.785 139.718C234.746 139.518 237.843 140.212 240.741 139.319C241.822 139.898 241.385 141.266 241.462 142.269C237.122 142.339 232.776 143.091 228.456 142.224C228.25 140.155 229.995 139.409 231.785 139.718Z" fill="#FDFDFD"/>
<path d="M238.79 143.843C239.878 144.17 241.996 143.811 241.475 145.558C241.945 148.238 237.251 148.456 236.749 146.04C236.82 144.832 237.708 144.151 238.79 143.843Z" fill="#FDFDFD"/>
<path d="M42.007 146.959C44.5825 145.288 47.6923 143.322 50.8022 144.961C53.2102 146.998 51.6521 150.57 52.2058 153.262C52.3989 157.208 47.2996 159.675 43.9773 158.84C40.7902 157.927 37.8735 154.914 38.6461 151.335C36.6501 147.602 40.3201 148.129 42.007 146.959Z" fill="#FDFDFD"/>
<path d="M228.037 146.696C228.147 145.963 227.245 143.946 228.591 144.222C230.265 144.164 232.197 144.003 232.699 146.002C232.184 147.955 229.1 148.392 228.037 146.696Z" fill="#FDFDFD"/>
<path d="M115.703 149.863C117.68 148.135 119.315 145.957 121.775 144.858C121.781 146.111 121.067 147.139 120.487 148.186C119.972 149.889 119.096 151.046 117.248 151.373C116.27 151.74 115.214 152.202 114.158 151.862C113.186 150.615 112.265 149.33 111.389 148.019C113.121 147.981 114.003 150.448 115.703 149.863Z" fill="#FDFDFD"/>
<path d="M233.967 147.454C234.952 147.904 235.899 148.443 236.923 148.835C238.899 150.32 243.593 146.689 241.359 151.836C239.929 152.986 238.919 154.888 237.026 155.325C233.311 156.874 228.063 153.706 228.591 149.478C231.07 150.397 232.686 149.144 233.967 147.454Z" fill="#FDFDFD"/>
<path d="M179.883 150.416C181.609 148.932 187.687 150.532 184.654 153.166C174.024 153.327 163.381 153.32 152.751 153.166C151.817 152.665 151.952 151.611 151.946 150.712C161.243 150.384 170.605 151.168 179.883 150.416Z" fill="#FDFDFD"/>
<path d="M181.094 155.498C182.536 155.537 183.991 155.666 185.446 155.871C185.465 156.764 185.588 157.812 184.661 158.306C174.024 158.461 163.381 158.461 152.751 158.306C151.817 157.805 151.952 156.751 151.946 155.852C161.655 155.608 171.391 156.218 181.094 155.498Z" fill="#FDFDFD"/>
<path d="M229.924 160.234C230.432 158.788 231.289 156.97 233.111 158.049C234.521 158.473 236.266 158.987 237.605 158.056C239.24 156.893 240.187 158.769 240.097 160.195C239.569 161.101 238.506 160.96 237.612 160.979C235.88 160.966 234.154 160.966 232.435 160.979C231.533 160.966 230.516 161.044 229.924 160.234Z" fill="#FDFDFD"/>
<path d="M157.322 160.639C166.671 161.024 176.091 160.986 185.465 160.992C185.452 161.892 185.588 162.946 184.661 163.447C174.024 163.601 163.381 163.601 152.751 163.447C151.837 162.952 151.946 161.924 151.946 161.037C153.684 160.941 155.584 161.069 157.322 160.639Z" fill="#FDFDFD"/>
<path d="M42.7861 161.789C43.9322 162.663 48.5615 160.041 48.3748 162.868C48.4843 164.398 51.4138 164.173 50.8279 165.998C47.6794 168.6 43.1917 168.304 39.9596 166.03C40.5905 164.423 41.8718 163.222 42.7861 161.789Z" fill="#FDFDFD"/>
<path d="M119.721 2.10424C133.332 -0.433799 147.284 -0.819324 160.934 1.738C183.366 5.87597 204.408 17.416 219.712 34.2892C222.037 34.6683 223.653 32.1495 225.829 31.6419C233.272 27.8124 242.131 27.7867 250.032 30.2476C258.003 32.4194 263.984 38.6007 268.607 45.1803C272.2 52.6981 274.286 61.5523 271.723 69.7319C269.225 80.1411 261.26 89.2716 251.055 92.7477C250.038 93.1525 248.885 93.4031 248.1 94.2127C249.046 102.694 249.426 111.208 248.634 119.69C257.558 123.416 264.48 131.48 266.862 140.836C268.362 144.376 267.313 148.328 268.298 151.984C266.881 166.852 254.867 180.815 239.588 182.337C235.532 183.218 231.392 182.588 227.342 182.068C225.256 181.444 223.273 179.838 221 180.352C217.253 184.342 213.074 187.883 209.082 191.616C208.245 192.554 206.384 192.766 206.648 194.347C233.446 194.488 260.243 194.224 287.034 194.475C288.045 194.963 288.045 196.358 287.034 196.852C262.4 197.084 237.766 196.865 213.132 196.962C207.73 197.199 202.483 196.223 197.145 196.942C198.021 192.496 197.596 187.947 197.692 183.455C197.699 161.622 197.615 139.782 197.724 117.948C201.549 117.91 205.393 117.756 209.23 117.961L209.262 118.572C205.625 118.559 201.987 118.482 198.355 118.591C198.323 143.856 198.252 169.127 198.381 194.392C200.944 195.381 202.798 193.556 204.691 192.361C209.732 188.454 214.523 184.182 218.753 179.414C219.043 176.889 214.651 176.593 213.325 174.897C208.258 169.898 204.234 163.672 202.598 156.681C201.124 147.248 202.334 136.531 209.185 129.328C209.192 130.452 209.204 132.701 209.211 133.826C208.2 134.108 207.556 134.796 207.292 135.888C203.229 143.117 203.114 152.202 205.76 159.913C210.46 175.102 228.733 184.464 243.818 179.337C250.682 177.326 257.011 172.905 260.932 166.897C265.819 159.392 266.901 149.902 265.027 141.253C262.452 131.859 254.893 124.155 245.937 120.525C238.461 118.424 229.995 117.633 222.803 121.167C218.476 122.665 215.179 125.903 211.889 128.942C211.883 127.811 211.857 125.543 211.844 124.412C214.078 125.479 215.546 122.298 217.407 121.534C225.803 116.567 236.678 114.684 245.911 118.398C247.669 115.584 246.02 111.471 246.645 108.278C246.22 103.697 247.649 98.4342 245.222 94.2641C230.349 97.3869 214.742 88.1471 209.172 74.3132C211.348 74.7565 212.179 73.4586 212.385 71.5053C212.437 73.0088 212.192 74.4931 212.07 75.9838C219.809 91.4755 241.893 98.1001 256.29 87.7488C269.856 80.0061 274.672 60.7748 267.152 47.2878C264.196 41.4921 259.181 37.0714 253.611 33.8587C249.111 32.0596 244.366 30.8323 239.517 30.5496C230.078 30.9287 220.865 35.1566 214.961 42.6166C211.271 47.9689 208.535 54.3237 208.986 60.9355C209.295 62.6768 208.264 64.6044 209.765 66.018C209.848 65.4654 210.016 64.3602 210.099 63.8012C210.878 66.4035 210.408 69.0186 209.758 71.5567C208.96 71.6338 208.168 71.6723 207.369 71.6723C207.112 64.1482 205.47 56.0907 209.198 49.1319C210.969 43.8631 215.057 39.9886 218.302 35.645C210.022 26.0839 199.321 18.7654 188.028 13.1688C178.544 7.99636 167.985 5.03424 157.354 3.3315C140.556 1.0569 123.088 1.74442 107.063 7.63011C89.8136 13.4387 74.3416 23.8736 61.9795 37.1421C61.1425 38.787 63.2157 39.5902 64.13 40.4833C75.4169 48.6115 80.5871 64.6108 75.5972 77.6544C74.1163 81.5354 75.198 85.8533 74.1936 89.8306C74.0326 82.2293 73.9231 74.6216 74.1742 67.0203C74.9018 68.4853 76.3247 72.4884 75.2945 65.883C75.2559 56.2063 69.9698 46.6582 61.7864 41.505C54.3755 35.8763 43.9837 34.6362 35.2014 37.3477C25.917 39.7251 18.6929 47.3778 15.3448 56.1549C12.338 63.6534 13.1879 72.1221 15.9114 79.5692C19.3174 85.8725 24.1528 91.8867 30.8747 94.8167C43.8484 101.82 61.1039 96.815 69.5191 85.1208C73.1956 80.8928 70.8197 74.7694 71.5086 69.7319C73.6785 65.5425 69.9891 66.7119 68.1284 66.3585C69.1199 66.2364 71.0966 65.9858 72.0881 65.8638C72.3264 75.0264 71.8821 84.2083 72.2105 93.3646C74.0455 95.0288 77.0394 93.7437 79.3122 94.3862C77.0458 93.9043 73.2149 96.301 71.6117 93.9622C70.4463 92.5743 73.3437 86.2902 70.3368 87.2219C62.6942 97.4254 48.5615 102.739 36.1543 98.8198C35.9998 98.9804 35.6908 99.2888 35.5362 99.443C35.3302 106.023 35.3495 112.615 35.4783 119.201C35.7616 120.66 35.871 122.273 36.7531 123.519C53.223 118.372 71.9787 129.129 76.9364 145.308C77.5738 147.525 80.6901 145.777 82.4156 146.201L82.3834 146.818C79.6084 146.856 76.8398 146.831 74.0712 146.786C75.6229 144.1 72.8736 141.202 71.734 138.889C63.1127 124.586 41.6722 119.645 28.1833 129.951C17.2506 136.543 12.1512 150.834 15.3255 162.978C18.2228 174.717 28.4731 184.4 40.5648 186.071C56.6162 189.226 73.3501 177.075 75.9448 161.089C75.6615 161.056 75.1014 160.992 74.8181 160.96C75.5778 157.163 75.2108 153.282 75.3976 149.452C76.241 149.388 77.0909 149.362 77.9344 149.375C80.7867 161.416 75.1465 174.087 65.7525 181.676C67.3107 184.625 70.3368 186.437 72.7449 188.628C75.6744 190.845 78.3593 194.366 82.3255 194.494C82.5186 195.33 82.744 196.159 83.0209 196.981C80.0269 196.718 77.0587 196.062 74.0583 196.904C51.5233 197.013 28.9882 196.917 6.44665 196.949C4.45713 196.441 1.91388 197.386 0.0595684 196.21C-0.461958 194.385 2.57706 193.299 3.87122 194.379C27.7133 194.347 51.549 194.424 75.3847 194.353C75.3332 194.083 75.2302 193.55 75.1786 193.286C71.3348 190.305 67.7034 187.009 64.2202 183.603C61.7864 183.224 59.7775 185.576 57.5047 186.218C45.6384 191.198 30.9391 188.063 22.0409 178.823C16.6518 174.049 14.1537 166.904 12.544 160.105C11.1082 150.454 14.4563 140.289 21.0945 133.183C24.2944 128.859 29.3745 126.526 34.0103 124.226C33.624 115.539 31.6538 106.704 33.4694 98.0937C30.4175 96.4038 26.8184 95.6456 24.2687 93.1011C15.5959 86.9584 11.1018 76.2665 10.9601 65.8573C11.7649 54.0731 18.7315 42.5973 29.4968 37.4698C35.1048 34.1286 41.801 33.8009 48.1301 33.9358C52.2251 33.9165 55.7792 36.7694 59.7582 36.8658C69.7252 25.7177 81.6237 16.131 95.3894 10.0718C97.0055 9.42281 98.525 8.56823 100.038 7.70079C106.638 5.9852 112.915 3.01666 119.721 2.10424Z" fill="#D3E7F7"/>
<path d="M88.0623 26.5209C88.9186 26.1418 89.8457 25.994 90.7793 26.0068C121.91 26.0518 153.041 26.0325 184.165 26.0197C185.813 26.1418 189.103 26.3731 190.751 26.4887C156.524 26.81 122.283 26.765 88.0623 26.5209Z" fill="#D3E7F7"/>
<path d="M83.111 29.8878C82.8985 28.4292 84.1927 27.1313 85.6671 27.4011C85.0877 28.4742 84.2184 29.3673 83.111 29.8878Z" fill="#D3E7F7"/>
<path d="M197.879 31.6355C198.954 44.8526 197.995 58.3267 198.33 71.6402L197.712 71.6017C197.705 58.2818 197.493 44.949 197.879 31.6355Z" fill="#D3E7F7"/>
<path d="M103.695 37.579C101.532 37.4891 101.294 32.4837 103.631 33.0298C102.762 34.4177 102.562 37.3413 104.951 36.9686C107.101 37.3734 106.799 34.1029 105.472 33.1905C109.277 32.8563 107.043 40.0785 103.695 37.579Z" fill="#D3E7F7"/>
<path d="M113.34 33.0555C117.358 34.6619 111.666 40.3291 110.044 36.3196C111.093 36.4225 112.497 37.4248 113.224 36.1976C114.441 35.4843 113.456 34.0964 113.34 33.0555Z" fill="#D3E7F7"/>
<path d="M94.6232 34.3727L95.1834 34.4563C95.3379 35.3237 95.2284 36.4546 96.3745 36.5895C97.9133 37.7075 98.7053 35.5807 99.4328 34.5848C100.251 33.7173 99.8513 36.2682 99.362 36.5124C97.8554 38.8191 93.4642 37.2899 94.6232 34.3727Z" fill="#D3E7F7"/>
<path d="M236.942 40.8174C237.521 39.3782 240.535 40.464 242.086 40.2006L242.119 40.8046C240.387 40.7982 238.661 40.8046 236.942 40.8174Z" fill="#D3E7F7"/>
<path d="M95.1641 42.6937C95.1769 40.5347 98.6151 40.8946 99.8063 40.8303C129.173 40.8367 158.546 40.7211 187.906 40.8881C188.408 42.2696 190.056 45.8357 187.513 45.3666C188.575 43.3748 187.436 39.5902 184.158 41.46C156.253 41.4728 128.355 41.4086 100.45 41.4857C99.5874 41.8776 95.3121 40.9909 95.9367 43.3876C95.6083 45.4116 98.2932 45.765 99.7612 46.0349C98.8534 47.8469 93.6896 45.3024 95.1641 42.6937Z" fill="#D3E7F7"/>
<path d="M244.681 41.6784C245.904 40.9974 247.669 42.7065 247.154 43.9466C246.065 43.5354 245.396 42.5266 244.681 41.6784Z" fill="#D3E7F7"/>
<path d="M38.6525 42.7451C40.2621 42.9057 43.4814 43.2334 45.0911 43.394C42.9342 43.3683 40.7901 43.3619 38.6332 43.3876L38.6525 42.7451Z" fill="#D3E7F7"/>
<path d="M235.892 43.6125C237.438 43.5547 240.535 43.439 242.08 43.3812C244.172 43.696 244.424 46.4911 246.555 46.7031C248.3 47.1015 249.954 48.3352 250.096 50.2371C250.991 56.9131 249.877 63.7562 251.139 70.3744C249.137 71.1776 244.977 70.0467 245.492 67.3416C248.763 64.7007 249.71 60.4086 249.723 56.3927C247.147 53.951 244.597 51.2909 243.194 47.9882C242.106 47.6605 241.249 47.9882 240.631 48.9842C237.734 52.1647 233.555 53.8611 229.235 53.7325C229.557 57.44 229.389 61.4816 231.823 64.5722C231.946 65.9473 235.307 67.001 234.006 68.6588C233.047 70.9655 230.008 70.2716 227.934 70.368C228.984 64.2124 228.424 57.9669 228.63 51.7599C229.699 48.0525 232.319 45.1032 235.892 43.6125Z" fill="#D3E7F7"/>
<path d="M42.6637 45.6622C48.4198 45.5337 54.9099 49.9994 54.06 56.3477C53.3904 55.4802 52.7852 54.555 52.0319 53.7518C46.7587 53.5848 41.479 53.5912 36.2123 53.7454C35.4718 54.5421 35.2336 55.9429 34.1133 56.2834C34.0296 54.0024 36.3088 52.4924 35.5298 49.9544C37.8412 50.2307 37.9249 47.7119 38.1503 46.0477C39.6633 45.9899 41.17 45.8614 42.6637 45.6622Z" fill="#D3E7F7"/>
<path d="M52.1671 46.1634C53.4226 45.4309 55.2641 47.2686 54.5301 48.5215C53.6287 47.8533 52.8303 47.0565 52.1671 46.1634Z" fill="#D3E7F7"/>
<path d="M88.2554 49.8323C88.5259 49.948 89.0667 50.1857 89.3307 50.3078C88.3391 64.0197 89.0216 77.8472 88.925 91.604C90.0776 91.7518 90.9725 91.3085 91.3009 90.1712C91.9963 92.4265 90.979 93.1076 88.2426 92.2144C88.2104 78.0849 88.191 63.9554 88.2554 49.8323Z" fill="#D3E7F7"/>
<path d="M110.114 49.8195C130.718 49.8002 151.315 49.7938 171.919 49.8195L171.925 50.4427C151.321 50.4492 130.718 50.4556 110.114 50.4427V49.8195Z" fill="#D3E7F7"/>
<path d="M176.432 49.8195C178.846 49.8195 183.675 49.8195 186.09 49.8195V50.4427C182.858 50.462 179.651 50.4877 176.432 50.4427V49.8195Z" fill="#D3E7F7"/>
<path d="M225.398 51.7535L226.022 51.7214C225.964 56.065 226.222 60.4343 225.552 64.7522C225.333 60.4214 225.243 56.0843 225.398 51.7535Z" fill="#D3E7F7"/>
<path d="M242.003 51.6507C242.943 52.6852 244.256 53.7968 244.488 55.2104C243.091 54.4715 241.771 53.4049 242.003 51.6507Z" fill="#D3E7F7"/>
<path d="M253.058 51.7214L253.689 51.7407C253.727 56.2899 253.798 60.8455 253.489 65.3883C252.845 60.8583 253.064 56.277 253.058 51.7214Z" fill="#D3E7F7"/>
<path d="M195.123 53.6619H195.741C195.774 59.0143 195.774 64.3666 195.741 69.7254H195.117C195.065 64.3731 195.097 59.0143 195.123 53.6619Z" fill="#D3E7F7"/>
<path d="M232.474 55.5959C233.375 55.5831 234.276 55.6216 235.184 55.7116C232.531 55.9943 232.763 58.3781 233.047 60.7234C230.851 60.9997 232.898 56.971 232.474 55.5959Z" fill="#D3E7F7"/>
<path d="M44.5309 56.9003C45.0911 55.4867 47.7438 56.0393 48.9414 56.5533C47.5313 57.0738 46.0633 57.1894 44.5309 56.9003Z" fill="#D3E7F7"/>
<path d="M97.3145 57.0031C99.6582 55.7951 102.44 56.4826 104.957 56.2128C115.632 56.3027 126.308 56.0843 136.983 56.3284C137.169 56.4955 137.53 56.8425 137.717 57.016C138.109 77.5195 137.221 98.0809 138.457 118.559C140.286 121.155 138.109 122.028 136.526 122.195C123.468 121.251 110.359 122.061 97.2888 121.733C97.2695 121.444 97.2308 120.859 97.2115 120.57C110.662 121.81 124.279 120.865 137.788 121.084C137.781 119.394 137.768 116.008 137.762 114.318C127.698 113.83 117.615 114.157 107.539 114.042C104.114 114.177 100.553 113.553 97.2502 114.716C97.2308 110.707 97.321 106.691 97.1214 102.688C94.7649 101.197 92.0413 99.6422 91.494 96.6673C92.6981 96.4167 92.7496 97.5154 93.0264 98.37C95.6469 101.666 100.489 103.626 104.281 101.165C110.288 99.0575 111.273 90.0812 106.464 86.2195C104.004 83.4502 99.9093 83.5144 96.5741 84.3947C96.9475 83.8421 97.1664 83.2381 97.2244 82.5827C97.3725 74.0562 97.0634 65.5296 97.3145 57.0031ZM118.047 60.3572C113.141 61.4366 107.996 60.3186 103.013 60.7555C102.588 64.9449 109.052 62.786 111.409 63.2807C115.259 61.7001 119.199 64.4116 122.934 62.5418C123.764 59.6504 119.779 60.4985 118.047 60.3572ZM103.013 66.5384C102.581 68.5624 104.5 70.4772 106.889 69.0829C114.467 68.8966 122.129 69.5327 129.649 68.7038C130.937 68.6845 130.744 67.483 130.724 66.5513C121.485 66.4421 112.246 66.5127 103.013 66.5384ZM103.818 72.3856C102.556 72.9189 102.98 74.9108 104.339 74.8401C113.141 74.9043 121.942 74.8786 130.744 74.8401C130.724 73.9405 130.853 72.8996 129.952 72.3792C121.247 72.2185 112.529 72.2249 103.818 72.3856Z" fill="#D3E7F7"/>
<path d="M50.8987 56.9645C52.2315 57.6007 51.7164 60.1965 51.182 61.3917C50.5961 60.0166 50.4995 58.5388 50.8987 56.9645Z" fill="#D3E7F7"/>
<path d="M220.305 57.5428C220.594 57.7227 221.187 58.089 221.476 58.2689C221.869 60.2865 219.48 60.1387 218.161 60.0423C219.429 59.6632 220.478 59.0464 220.305 57.5428Z" fill="#D3E7F7"/>
<path d="M212.578 64.0646C212.759 62.4262 211.207 58.2175 213.782 60.0487C213.351 61.3724 212.945 62.7153 212.578 64.0646Z" fill="#D3E7F7"/>
<path d="M176.252 61.0961C182.883 59.5411 189.567 64.9835 190.082 71.6145C188.537 71.1069 188.723 68.5946 187.918 67.2452C185.465 63.3193 180.791 61.321 176.252 61.0961Z" fill="#D3E7F7"/>
<path d="M170.341 63.6598C171.313 61.5973 173.792 61.5909 175.737 61.1861L175.704 61.8222C173.805 62.1242 172.125 63.1908 170.341 63.6598Z" fill="#D3E7F7"/>
<path d="M53.0106 62.8245C54.0794 62.2013 54.4142 63.8655 54.176 64.5851C53.9571 65.671 52.811 64.6622 52.2959 64.4052C52.7402 63.9747 53.2746 63.5056 53.0106 62.8245Z" fill="#D3E7F7"/>
<path d="M64.3103 66.487C62.5268 67.136 61.3679 63.7755 63.5634 63.9426C63.2995 64.9 63.8725 65.6967 64.3103 66.487Z" fill="#D3E7F7"/>
<path d="M166.858 68.5175C167.154 66.5577 168.268 64.9192 169.987 63.9233C170.013 65.7288 167.733 66.4163 167.888 68.3311C167.63 68.3825 167.115 68.4725 166.858 68.5175Z" fill="#D3E7F7"/>
<path d="M240.2 69.0636C239.839 67.7528 241.932 68.6717 242.64 68.5175C243.342 69.25 243.664 70.2459 243.876 71.2226C242.782 70.2459 241.867 68.8709 240.2 69.0636Z" fill="#D3E7F7"/>
<path d="M181.184 69.2757C182.974 68.254 184.158 70.6057 183.341 72.0579C180.611 73.253 179.497 76.9348 176.471 77.436C175.073 76.5557 173.547 75.5469 172.723 74.0562C172.099 72.9831 172.994 71.184 174.346 71.7752C175.118 72.5205 175.93 73.2723 176.445 74.2297C175.46 74.0176 174.623 73.4458 173.734 73.0217C173.696 74.9108 175.576 75.7204 176.915 76.6392C178.93 75.0071 180.52 72.9317 182.561 71.3254C183.276 70.5543 182.549 70.1174 181.827 69.8989C180.636 71.3318 179.555 72.9831 177.7 73.6321C178.042 71.8073 180.321 71.0105 181.184 69.2757Z" fill="#D3E7F7"/>
<path d="M38.292 69.6291C39.3093 70.1174 40.1591 70.9977 40.6871 71.9936C39.3543 72.4627 37.8413 70.9591 38.292 69.6291Z" fill="#D3E7F7"/>
<path d="M163.143 72.5655C166.459 73.9855 165.931 71.1198 166.581 69.5391C167.141 71.9486 165.77 74.3325 166.806 76.7484C167.804 79.5114 170.734 80.5844 172.067 83.0646C173.264 83.2445 174.7 83.071 175.209 84.4461C173.96 84.2148 172.71 83.977 171.487 83.6493C170.541 82.5249 169.903 80.8414 168.107 81.2398C168.86 84.7931 166.446 89.7985 168.88 92.7606C173.277 92.9277 177.688 92.9855 182.092 92.7799C184.145 90.9743 182.162 87.4532 182.877 85.1722C183.038 83.8614 181.003 84.7738 180.237 84.4718C181.132 83.3281 182.986 83.4437 184.158 82.5763C185.89 82.4092 185.575 79.9354 187.268 79.929C185.555 84.5425 187.069 89.3937 186.76 94.1421C187.12 98.8069 185.987 103.53 186.727 108.162C181.499 106.427 175.498 108.368 173.676 113.939C164.083 114.254 154.489 113.926 144.896 114.087C144.896 115.841 144.902 119.355 144.902 121.11C154.946 121.238 164.997 120.981 175.041 121.193C175.26 121.861 175.466 122.542 175.64 123.23C174.378 122.35 173.2 120.878 171.275 121.816C162.512 121.759 153.736 121.521 144.999 122.15C144.818 122.028 144.464 121.778 144.284 121.649C143.93 117.813 144.529 114.016 144.825 110.206C143.872 99.3081 144.284 88.3592 144.265 77.4295C143.73 75.5404 144.529 73.7735 145.636 72.3599C151.463 72.0129 157.316 72.4562 163.143 72.5655ZM163.065 96.1339C161.868 96.558 162.473 98.113 163.581 98.0294C164.862 97.9009 164.347 95.4271 163.065 96.1339ZM168.068 96.0954C167.598 98.1451 168.609 98.8712 171.088 98.2672C175.009 98.0551 179.007 98.8133 182.858 97.8881C183.006 97.0721 182.504 96.0311 181.564 96.0954C177.063 95.9861 172.562 96.0504 168.068 96.0954ZM163.065 100.632C161.868 101.056 162.473 102.611 163.581 102.527C164.862 102.399 164.347 99.9249 163.065 100.632ZM168.043 100.593C167.804 101.775 168.306 103.44 169.82 102.938C174.166 103.395 178.492 102.437 182.858 102.431C182.858 101.975 182.858 101.062 182.858 100.606C177.919 100.452 172.974 100.58 168.043 100.593Z" fill="#D3E7F7"/>
<path d="M219.674 75.6433C219.461 74.0176 221.315 72.0322 222.983 72.5012C221.856 73.5229 220.775 74.5895 219.674 75.6433Z" fill="#D3E7F7"/>
<path d="M188.215 78.9716C188.839 77.4874 188.646 74.9043 190.075 74.2361C189.76 75.8489 189.876 78.0978 188.215 78.9716Z" fill="#D3E7F7"/>
<path d="M197.705 74.2618L198.33 74.2297C198.375 87.9223 198.214 101.615 198.375 115.307C202.663 115.603 207.183 114.845 211.348 115.834C206.803 115.976 202.257 116.072 197.718 115.956C197.634 102.058 197.66 88.16 197.705 74.2618Z" fill="#D3E7F7"/>
<path d="M47.0999 75.3798C47.4991 73.2273 51.549 76.8384 48.3812 77.3653C48.2975 76.44 48.3426 75.3348 47.0999 75.3798Z" fill="#D3E7F7"/>
<path d="M195.117 76.1509H195.741C195.735 89.4322 195.793 102.714 195.716 115.989C193.591 116.779 192.348 116.329 191.981 114.639C192.986 114.967 193.996 115.301 195.052 115.423C195.2 102.334 195.033 89.2395 195.117 76.1509Z" fill="#D3E7F7"/>
<path d="M63.7502 80.231C64.9992 79.4728 66.8664 81.3362 66.1067 82.5891C65.2246 81.9016 64.4326 81.1113 63.7502 80.231Z" fill="#D3E7F7"/>
<path d="M220.021 81.0535C233.175 80.3917 246.49 80.3145 259.651 81.1177C246.452 81.2527 233.195 81.6382 220.021 81.0535Z" fill="#D3E7F7"/>
<path d="M91.3975 89.6635C91.5198 87.1255 93.9987 85.6155 96.0719 84.626C95.222 86.6564 92.7689 87.8066 91.3975 89.6635Z" fill="#D3E7F7"/>
<path d="M24.9319 86.2581C25.1636 86.1617 25.6337 85.9818 25.8719 85.8854C38.7233 85.9946 51.8066 85.1336 64.5228 86.3416C51.3301 86.3609 38.1052 86.7078 24.9319 86.2581Z" fill="#D3E7F7"/>
<path d="M96.4518 86.952C101.178 83.81 107.912 87.9287 107.513 93.461C106.811 95.5428 105.678 97.4833 104.236 99.1539C101.216 100.041 96.2007 100.792 94.7584 97.2584C95.5632 97.5411 96.3681 97.8367 97.1986 98.0487C97.2823 94.5854 97.2888 91.1221 97.2115 87.6652C95.2156 88.5712 94.3142 90.4603 93.5286 92.3815C93.0458 90.0298 94.5137 88.0636 96.4518 86.952Z" fill="#D3E7F7"/>
<path d="M74.1292 90.9551C76.8462 91.5076 79.6406 91.5526 82.4092 91.5976L82.3706 92.2016C79.8981 91.5783 75.2752 93.9236 74.1292 90.9551Z" fill="#D3E7F7"/>
<path d="M88.2426 94.1421C90.9725 93.2425 91.9963 93.93 91.3138 96.2046C90.979 95.0545 90.0776 94.5983 88.9122 94.7525C88.8027 105.875 88.8478 117.01 88.8993 128.133C124.286 128.287 159.685 128.145 195.072 128.197C195.123 150.249 195.13 172.307 195.072 194.359C159.724 194.347 124.37 194.482 89.0152 194.295C88.8413 194.115 88.4872 193.762 88.3069 193.588C88.2361 178.861 88.0043 164.121 88.4486 149.414C93.0651 149.401 97.6815 149.285 102.298 149.452C103.18 154.779 106.773 159.926 112.085 161.551C123.108 166.178 135.811 153.018 130.055 142.333C127.396 134.584 117.075 131.12 110.102 135.246C107.333 136.357 105.44 138.786 103.946 141.266C103.18 143.097 102.935 145.199 101.628 146.766C97.2502 146.387 92.4534 147.904 88.3005 146.053C88.1267 128.749 88.2426 111.446 88.2426 94.1421ZM144.258 133.356C144.207 134.198 144.207 135.04 144.258 135.888C150.697 135.933 157.136 135.939 163.574 135.882C163.658 134.892 163.581 133.337 162.241 133.376C156.247 133.222 150.246 133.363 144.258 133.356ZM144.239 139.788C143.711 142.294 144.233 146.002 148.102 144.254C152.995 143.342 157.966 143.637 162.917 143.624C166.793 146.895 167.624 139.827 164.843 139.923C157.966 140.412 151.128 139.339 144.239 139.788ZM172.144 140.103C170.438 140.591 167.167 139.73 169.356 143.592C172.504 143.065 179.516 145.963 177.076 139.763C175.421 139.711 173.779 139.82 172.144 140.103ZM179.883 150.416C170.605 151.168 161.243 150.384 151.946 150.712C151.952 151.611 151.817 152.665 152.751 153.166C163.381 153.32 174.024 153.327 184.654 153.166C187.687 150.532 181.609 148.932 179.883 150.416ZM144.889 150.692C144.458 152.318 145.173 153.031 146.808 152.607C147.233 150.975 146.518 150.262 144.889 150.692ZM181.094 155.498C171.391 156.218 161.655 155.608 151.946 155.852C151.952 156.751 151.817 157.805 152.751 158.306C163.381 158.461 174.024 158.461 184.661 158.306C185.588 157.812 185.465 156.764 185.446 155.871C183.991 155.666 182.536 155.537 181.094 155.498ZM144.889 155.833C144.458 157.458 145.173 158.171 146.808 157.747C147.233 156.115 146.518 155.402 144.889 155.833ZM157.322 160.639C155.584 161.069 153.684 160.941 151.946 161.037C151.946 161.924 151.837 162.952 152.751 163.447C163.381 163.601 174.024 163.601 184.661 163.447C185.588 162.946 185.452 161.892 185.465 160.992C176.091 160.986 166.671 161.024 157.322 160.639ZM144.889 160.973C144.458 162.599 145.173 163.312 146.808 162.888C147.233 161.256 146.518 160.542 144.889 160.973ZM162.286 170.611C162.286 171.729 162.28 173.965 162.274 175.083C163.394 175.083 165.634 175.09 166.755 175.096C166.755 173.978 166.761 171.742 166.768 170.624C165.647 170.624 163.407 170.618 162.286 170.611ZM171.944 170.624C171.944 171.742 171.938 173.965 171.931 175.077C174.346 175.083 179.175 175.096 181.589 175.102C185.015 176.889 186.463 173.033 185.452 170.63C180.945 170.547 176.445 170.573 171.944 170.624ZM97.2115 182.832C96.851 184.651 99.2912 184.284 100.45 184.715C127.492 184.779 154.541 184.721 181.589 184.741C183.135 185.814 185.768 184.708 185.478 182.845C156.054 182.774 126.636 182.807 97.2115 182.832ZM97.2373 187.33C97.2437 187.638 97.2437 188.262 97.2437 188.57C126.642 188.622 156.047 188.602 185.446 188.577C185.44 188.268 185.44 187.645 185.44 187.336C156.041 187.285 126.636 187.304 97.2373 187.33Z" fill="#D3E7F7"/>
<path d="M177.108 113.971C177.752 109.794 185.105 108.638 187.184 111.915C186.74 114.768 186.605 117.685 186.772 120.576C187.751 120.358 188.543 119.735 189.354 119.195C188.916 120.84 187.654 122.375 186.09 122.999C186.09 122.697 186.083 122.093 186.083 121.791C186.103 119.208 186.096 116.631 186.071 114.054C183.089 113.489 179.98 115.025 177.108 113.971Z" fill="#D3E7F7"/>
<path d="M191.891 117.942C192.85 117.935 194.769 117.929 195.728 117.923C195.741 120.904 195.844 123.905 195.716 126.892L195.117 126.918C195.104 124.117 195.123 121.315 195.065 118.527C193.977 118.469 192.902 118.642 191.949 119.176C191.936 118.867 191.91 118.25 191.891 117.942Z" fill="#D3E7F7"/>
<path d="M180.269 121.778C180.875 120.339 183.875 121.431 185.433 121.161L185.446 121.771C183.714 121.771 181.988 121.771 180.269 121.778Z" fill="#D3E7F7"/>
<path d="M241.475 127.728C242.73 127.06 244.546 128.878 243.818 130.131C242.917 129.45 242.106 128.659 241.475 127.728Z" fill="#D3E7F7"/>
<path d="M231.398 129.63C234.785 129.077 237.921 132.56 241.333 130.838C242.795 133.228 244.269 135.689 244.7 138.503C243.31 138.67 243.181 136.987 241.925 136.711C237.444 135.978 233.008 137.893 228.572 136.55C227.136 136.357 226.486 137.97 225.365 138.555C225.217 137.025 225.694 135.567 226.209 134.147C227.625 132.277 230.626 132.084 231.398 129.63Z" fill="#D3E7F7"/>
<path d="M34.2871 138.638C33.9588 136.993 35.871 135.078 37.5193 135.413C36.4376 136.479 35.356 137.559 34.2871 138.638Z" fill="#D3E7F7"/>
<path d="M53.3196 135.387C55.1096 135.528 57.6013 137.244 57.1892 139.268C55.8951 137.976 54.6074 136.678 53.3196 135.387Z" fill="#D3E7F7"/>
<path d="M40.7772 136.794C43.9836 137.025 47.3253 136.601 50.4544 136.968C56.7643 139.518 57.0282 147.48 56.6741 153.275C56.4295 155.55 58.8504 157.246 58.522 159.508C56.2105 160.934 53.4935 161.101 50.8408 160.947C50.7828 158.666 53.9699 158.101 54.2275 155.89C55.7019 152.222 55.483 148.186 55.3478 144.305C53.6673 143.303 51.8709 142.532 50.0231 141.928C45.0846 140 41.9491 145.141 37.3519 145.513C33.6304 145.558 36.032 150.731 35.7616 152.838C35.1885 156.494 38.8843 158.178 40.0046 160.96C37.2489 161.583 34.725 160.491 32.259 159.54C32.7612 157.008 34.7443 154.785 34.0811 151.971C33.9137 146.638 34.7893 138.754 40.7772 136.794Z" fill="#D3E7F7"/>
<path d="M228.456 142.224C226.64 141.967 228.99 136.254 231.81 139.094L231.785 139.718C229.995 139.409 228.25 140.155 228.456 142.224Z" fill="#D3E7F7"/>
<path d="M246.658 149.388C246.729 147.01 245.537 144.447 246.458 142.243C247.43 144.479 247.263 146.991 247.257 149.388H246.658Z" fill="#D3E7F7"/>
<path d="M228.591 144.222C229.093 141.832 234.315 143.676 233.137 146.265L232.699 146.002C232.197 144.003 230.265 144.164 228.591 144.222Z" fill="#D3E7F7"/>
<path d="M236.749 146.04C235.017 145.025 237.096 142.314 238.79 143.843C237.708 144.151 236.82 144.832 236.749 146.04Z" fill="#D3E7F7"/>
<path d="M114.853 149.33C117.384 147.512 119.283 143.547 123.017 144.26C123.062 145.809 122.361 148.206 120.487 148.186C121.067 147.139 121.781 146.111 121.775 144.858C119.315 145.957 117.68 148.135 115.703 149.863C114.003 150.448 113.121 147.981 111.389 148.019C112.265 149.33 113.186 150.615 114.158 151.862C115.214 152.202 116.27 151.74 117.248 151.373C117.5 152.678 116.173 152.858 115.259 153.224C113.038 152.678 112.014 150.39 110.758 148.72C110.539 145.462 114.28 147.544 114.853 149.33Z" fill="#D3E7F7"/>
<path d="M50.8021 144.961C54.7812 144.781 52.1478 150.827 52.8045 153.237L52.2057 153.262C51.652 150.57 53.2102 146.998 50.8021 144.961Z" fill="#D3E7F7"/>
<path d="M223.402 149.291C222.268 148.758 222.255 145.5 223.421 144.999C223.421 146.072 223.408 148.218 223.402 149.291Z" fill="#D3E7F7"/>
<path d="M234.502 144.839C235.448 146.072 236.066 147.531 236.923 148.835C235.899 148.443 234.952 147.904 233.967 147.454C234.109 146.574 234.315 145.706 234.502 144.839Z" fill="#D3E7F7"/>
<path d="M243.503 145.668C244.533 145.404 245.319 147.39 244.024 147.557C242.621 148.019 242.292 146.079 243.503 145.668Z" fill="#D3E7F7"/>
<path d="M72.8479 147.01L73.4531 146.895C73.3823 150.705 73.4724 154.509 73.3759 158.326C72.3843 158.3 70.3948 158.255 69.4033 158.236C70.2274 158.094 71.8821 157.805 72.7063 157.664C72.893 154.111 72.6805 150.557 72.8479 147.01Z" fill="#D3E7F7"/>
<path d="M212.99 154.111C215.212 153.911 217.433 153.719 219.635 153.327C220.137 156.661 214.439 153.295 212.99 154.111Z" fill="#D3E7F7"/>
<path d="M227.458 154.355C229.344 155.685 228.758 158.396 226.614 159.045C227.194 157.452 228.243 156.173 227.458 154.355Z" fill="#D3E7F7"/>
<path d="M28.8014 160.183C27.4944 159.611 28.4538 156.488 30.1342 157.201C29.5998 158.152 29.0461 159.103 28.8014 160.183Z" fill="#D3E7F7"/>
<path d="M233.111 158.049C234.437 157.349 236.279 157.317 237.605 158.056C236.266 158.987 234.521 158.473 233.111 158.049Z" fill="#D3E7F7"/>
<path d="M232.435 160.979C234.154 160.966 235.88 160.966 237.611 160.979C237.006 162.387 234.012 161.307 232.467 161.583L232.435 160.979Z" fill="#D3E7F7"/>
<path d="M253.689 162.476C254.938 161.718 256.799 163.575 256.045 164.835C255.157 164.147 254.365 163.357 253.689 162.476Z" fill="#D3E7F7"/>
<path d="M25.3697 168.054C24.5777 166.801 26.4513 164.918 27.7133 165.696C27.0244 166.563 26.2324 167.353 25.3697 168.054Z" fill="#D3E7F7"/>
<path d="M27.7713 169.416C28.267 167.771 29.954 167.045 31.4799 166.647C31.5121 168.259 31.5894 171.498 31.6215 173.117C40.7322 173.213 49.8621 173.335 58.9663 172.995C59.1723 172.699 59.5908 172.102 59.7968 171.806C60.2797 172.494 60.8785 173.303 59.7389 173.695C50.1647 173.959 40.5841 173.792 31.0034 173.785C31.1387 171.8 30.9906 169.879 30.1857 168.079C29.4067 168.574 28.7113 169.23 27.7713 169.416Z" fill="#D3E7F7"/>
<path d="M61.252 167.546C62.3465 167.7 63.2608 168.883 63.5892 169.898C62.4431 170.213 60.8978 168.696 61.252 167.546Z" fill="#D3E7F7"/>
<path d="M215.566 168.574C215.785 168.452 216.222 168.208 216.441 168.079C229.331 168.221 242.286 167.488 255.144 168.504C241.958 168.78 228.752 168.773 215.566 168.574Z" fill="#D3E7F7"/>
<path d="M85.6671 27.4011C86.4655 27.1184 87.2574 26.8036 88.0622 26.5209C122.283 26.765 156.524 26.81 190.751 26.4887C193.964 26.5787 197.029 28.3971 197.879 31.6355C197.493 44.949 197.705 58.2818 197.712 71.6017L198.33 71.6402C201.343 71.7559 204.35 71.6659 207.369 71.6723C208.168 71.6723 208.96 71.6338 209.758 71.5567C210.408 69.0186 210.878 66.4035 210.099 63.8012C209.971 61.6615 209.14 58.905 211.381 57.6456C214.342 57.5043 217.33 57.3758 220.305 57.5428C220.478 59.0464 219.429 59.6632 218.16 60.0423C217.066 60.0423 214.877 60.0487 213.782 60.0487C211.207 58.2175 212.759 62.4262 212.578 64.0646C212.514 66.5449 212.449 69.0251 212.385 71.5053C212.179 73.4586 211.348 74.7565 209.172 74.3132C205.554 74.2297 201.942 74.1461 198.33 74.2297L197.705 74.2618C197.66 88.16 197.634 102.058 197.718 115.956C202.257 116.072 206.803 115.976 211.348 115.834C212.552 118.128 211.561 121.604 211.844 124.412C211.857 125.543 211.883 127.811 211.889 128.942C211.902 136.383 211.664 143.83 211.909 151.264C214.078 152.138 219.648 149.452 219.635 153.327C217.433 153.719 215.212 153.911 212.99 154.111C212.07 154.033 210.235 153.879 209.32 153.809C209.159 147.145 209.346 140.482 209.211 133.826C209.204 132.701 209.192 130.452 209.185 129.328C209.269 125.742 209.34 122.15 209.262 118.572L209.23 117.961C205.393 117.756 201.549 117.91 197.724 117.948C197.615 139.782 197.699 161.622 197.692 183.456C197.596 187.947 198.021 192.496 197.145 196.942C159.106 196.975 121.06 196.904 83.0208 196.981C82.744 196.159 82.5186 195.33 82.3255 194.494C82.4735 179.478 82.5057 164.449 82.3641 149.439C81.2566 149.42 79.0418 149.394 77.9343 149.375C77.0909 149.362 76.241 149.388 75.3975 149.452C75.2108 153.282 75.5778 157.163 74.8181 160.96C72.2684 160.163 68.431 162.342 66.4092 160.183C65.8233 158.371 68.2378 158.403 69.4032 158.236C70.3947 158.255 72.3843 158.3 73.3758 158.326C73.4724 154.509 73.3822 150.705 73.4531 146.895L74.0712 146.786C76.8398 146.831 79.6084 146.856 82.3834 146.818L82.4156 146.201C82.377 129.09 82.5573 111.973 82.3512 94.8746C81.4627 94.232 80.3295 94.534 79.3122 94.3862C77.0394 93.7437 74.0454 95.0288 72.2104 93.3646C71.8821 84.2083 72.3263 75.0264 72.0881 65.8638C71.0965 65.9858 69.1199 66.2364 68.1284 66.3585C66.8599 66.4613 65.5851 66.5127 64.3103 66.487C63.8724 65.6967 63.2994 64.8999 63.5634 63.9426C66.9437 64.2895 70.7553 63.0173 73.9038 64.7329C74.0197 65.4911 74.1098 66.2557 74.1742 67.0203C73.9231 74.6216 74.0326 82.2293 74.1935 89.8306C74.1806 90.1133 74.142 90.6723 74.1291 90.955C75.2752 93.9236 79.8981 91.5783 82.3705 92.2016L82.4092 91.5976C82.48 77.0247 82.4027 62.4519 82.422 47.879C82.4864 41.8841 82.0615 35.8249 83.111 29.8878C84.2184 29.3673 85.0876 28.4742 85.6671 27.4011ZM95.1833 34.4563L94.6232 34.3727C93.4642 37.2899 97.8554 38.8191 99.362 36.5124C99.8513 36.2682 100.251 33.7173 99.4328 34.5848C99.0014 32.5929 95.6276 32.4258 95.1833 34.4563ZM103.695 37.579C107.043 40.0785 109.277 32.8563 105.472 33.1905C105.015 33.1519 104.088 33.0684 103.631 33.0298C101.294 32.4837 101.532 37.4891 103.695 37.579ZM110.044 36.3196C111.666 40.3291 117.358 34.6619 113.34 33.0555C111.029 32.368 109.921 34.2378 110.044 36.3196ZM95.164 42.6937C93.6896 45.3024 98.8533 47.8469 99.7612 46.0349C128.954 45.8229 158.146 46.0542 187.332 45.9128L187.513 45.3666C190.056 45.8357 188.408 42.2696 187.906 40.8881C158.546 40.7211 129.173 40.8367 99.8062 40.8303C98.6151 40.8945 95.1769 40.5347 95.164 42.6937ZM88.2554 49.8323C88.191 63.9554 88.2103 78.0849 88.2425 92.2144C90.9789 93.1076 91.9962 92.4265 91.3009 90.1712L91.3974 89.6635C92.7689 87.8066 95.222 86.6564 96.0719 84.626L96.5741 84.3947C99.9093 83.5144 104.004 83.4501 106.464 86.2195C111.273 90.0812 110.288 99.0575 104.281 101.165C100.489 103.626 95.6469 101.666 93.0264 98.37C92.7495 97.5154 92.698 96.4167 91.494 96.6673L91.3137 96.2046C91.9962 93.93 90.9725 93.2425 88.2425 94.1421C88.2425 111.446 88.1266 128.749 88.3005 146.053C92.4534 147.904 97.2501 146.387 101.628 146.766C102.935 145.199 103.18 143.097 103.946 141.266C105.44 138.786 107.333 136.357 110.102 135.246C117.075 131.12 127.396 134.584 130.055 142.333C135.811 153.018 123.108 166.178 112.085 161.551C106.773 159.926 103.18 154.779 102.298 149.452C97.6815 149.285 93.065 149.401 88.4486 149.414C88.0043 164.121 88.2361 178.861 88.3069 193.588C88.4872 193.762 88.8413 194.115 89.0152 194.295C124.369 194.482 159.724 194.347 195.072 194.359C195.13 172.307 195.123 150.249 195.072 128.197C195.085 127.876 195.104 127.239 195.117 126.918L195.716 126.892C195.844 123.905 195.741 120.904 195.728 117.923C194.769 117.929 192.85 117.935 191.891 117.942C191.91 118.25 191.936 118.867 191.949 119.176C191.736 120.435 191.44 121.681 191.08 122.909C188.704 124.83 185.884 126.205 182.871 126.764C180.115 126.224 176.838 126.179 175.64 123.23C175.466 122.542 175.26 121.861 175.041 121.193C164.997 120.981 154.946 121.238 144.902 121.11C144.902 119.355 144.896 115.841 144.896 114.087C154.489 113.926 164.083 114.254 173.676 113.939C175.498 108.368 181.499 106.427 186.727 108.162C189.271 109.647 191.26 111.639 191.981 114.639C192.348 116.329 193.591 116.779 195.716 115.989C195.793 102.714 195.735 89.4322 195.741 76.1509H195.117C195.98 72.9831 192.013 74.4224 190.075 74.2361C188.646 74.9043 188.839 77.4874 188.215 78.9716C187.976 79.2094 187.506 79.6913 187.268 79.929C185.575 79.9354 185.89 82.4092 184.158 82.5763C182.986 83.4437 181.132 83.3281 180.237 84.4718C178.589 85.275 176.889 84.8895 175.209 84.4461C174.7 83.0711 173.264 83.2445 172.067 83.0646C170.734 80.5844 167.804 79.5114 166.806 76.7484C165.77 74.3325 167.141 71.9486 166.581 69.5391C166.652 69.2821 166.793 68.768 166.858 68.5175C167.115 68.4725 167.63 68.3825 167.888 68.3311C167.733 66.4163 170.013 65.7288 169.987 63.9233L170.341 63.6598C172.125 63.1908 173.805 62.1242 175.704 61.8222L175.737 61.1861L176.252 61.0961C180.791 61.321 185.465 63.3193 187.918 67.2452C188.723 68.5946 188.537 71.1069 190.082 71.6145C192.11 71.5117 196.05 72.9703 195.117 69.7254H195.741C195.773 64.3666 195.773 59.0143 195.741 53.6619H195.123C195.014 52.5953 195.439 51.2009 194.331 50.5391C191.595 50.2371 188.82 50.5263 186.09 50.4427V49.8195C183.675 49.8195 178.846 49.8195 176.432 49.8195V50.4427C175.305 50.4427 173.052 50.4427 171.925 50.4427L171.918 49.8195C151.315 49.7938 130.718 49.8002 110.114 49.8195V50.4427C103.187 50.4235 96.2586 50.5391 89.3306 50.3078C89.0667 50.1857 88.5258 49.948 88.2554 49.8323ZM181.184 69.2757C180.321 71.0105 178.042 71.8073 177.7 73.6321C177.391 73.7799 176.76 74.0819 176.445 74.2297C175.93 73.2723 175.118 72.5205 174.346 71.7752C172.994 71.184 172.099 72.9831 172.723 74.0562C173.547 75.5469 175.073 76.5557 176.471 77.436C179.497 76.9348 180.611 73.253 183.341 72.0579C184.158 70.6057 182.974 68.254 181.184 69.2757ZM96.4517 86.952C94.5137 88.0636 93.0457 90.0298 93.5286 92.3815C92.7174 94.1678 93.2517 96.1597 94.7584 97.2584C96.2006 100.792 101.216 100.041 104.236 99.1539C105.678 97.4833 106.811 95.5428 107.513 93.461C107.912 87.9287 101.178 83.81 96.4517 86.952ZM177.108 113.971C179.98 115.025 183.089 113.489 186.071 114.054C186.096 116.631 186.103 119.208 186.083 121.791L185.446 121.771L185.433 121.161C183.875 121.431 180.875 120.339 180.269 121.778C178.962 121.412 179.799 123.339 180.424 123.609C182.278 123.641 184.615 124.425 186.09 122.999C187.654 122.375 188.916 120.84 189.354 119.195C189.374 116.573 189.586 113.566 187.184 111.915C185.105 108.638 177.752 109.794 177.108 113.971ZM114.853 149.33C114.28 147.544 110.539 145.462 110.758 148.72C112.014 150.39 113.038 152.678 115.259 153.224C116.173 152.858 117.5 152.678 117.248 151.373C119.096 151.046 119.972 149.889 120.487 148.186C122.361 148.206 123.062 145.809 123.017 144.26C119.283 143.547 117.384 147.512 114.853 149.33Z" fill="#7FB5D9"/>
<path d="M226.022 51.7214C226.878 46.2791 231.475 41.672 236.942 40.8174C238.661 40.8046 240.386 40.7982 242.118 40.8046C243.052 40.7532 243.85 41.3315 244.681 41.6785C245.396 42.5266 246.065 43.5354 247.153 43.9466C250.785 44.5827 252.729 48.3673 253.058 51.7214C253.064 56.277 252.845 60.8584 253.489 65.3883C253.354 68.2347 253.457 72.0257 256.863 73.0088C259.941 74.5188 261.499 78.0207 261.428 81.2976C260.984 81.2527 260.095 81.1627 259.651 81.1177C246.49 80.3145 233.175 80.3917 220.021 81.0535C216.654 82.6084 218.598 77.0376 219.674 75.6433C220.775 74.5895 221.856 73.5229 222.983 72.5012C226.215 71.3318 225.024 67.4444 225.552 64.7522C226.222 60.4343 225.964 56.065 226.022 51.7214ZM235.892 43.6125C232.319 45.1032 229.698 48.0525 228.63 51.7599C228.424 57.9669 228.984 64.2124 227.934 70.368C230.007 70.2716 233.047 70.9655 234.006 68.6588C235.306 67.0011 231.946 65.9473 231.823 64.5722C229.389 61.4816 229.557 57.44 229.235 53.7326C233.555 53.8611 237.734 52.1648 240.631 48.9842C241.249 47.9882 242.106 47.6605 243.194 47.9882C244.597 51.2909 247.147 53.951 249.722 56.3927C249.71 60.4086 248.763 64.7008 245.492 67.3416C244.977 70.0467 249.137 71.1776 251.139 70.3744C249.877 63.7562 250.991 56.9131 250.096 50.2371C249.954 48.3352 248.3 47.1015 246.555 46.7031C244.424 46.4911 244.172 43.696 242.08 43.3812C240.535 43.439 237.438 43.5547 235.892 43.6125ZM235.184 55.7116C234.276 55.6216 233.375 55.5831 232.473 55.5959C232.898 56.971 230.851 60.9997 233.046 60.7234C233.124 65.2983 239.916 68.0548 243.393 65.2276C247.044 63.5506 248.345 57.3051 244.488 55.2104C244.256 53.7968 242.943 52.6852 242.003 51.6507C240.361 53.7454 237.418 54.3622 235.184 55.7116ZM237.051 68.6524C236.556 69.8025 236.156 70.9913 235.796 72.1864C237.219 72.6554 238.616 73.4522 240.129 73.4972C241.648 73.0217 243.142 72.4498 244.713 72.1221C244.501 71.8972 244.082 71.4475 243.876 71.2226C243.664 70.2459 243.342 69.25 242.64 68.5175C241.932 68.6717 239.839 67.7528 240.2 69.0636C239.137 69.0058 238.088 68.8837 237.051 68.6524Z" fill="#7FB5D9"/>
<path d="M34.8344 44.7627C35.9225 43.9531 37.3133 43.6061 38.6332 43.3876C40.7901 43.3619 42.9341 43.3683 45.0911 43.394C47.5828 43.8695 50.1711 44.5121 52.1671 46.1634C52.8303 47.0565 53.6286 47.8533 54.5301 48.5215C57.2343 51.8949 57.0153 56.7204 56.0882 60.7298C56.2878 62.8245 56.9316 64.9256 56.584 67.0332C55.689 67.8942 54.5816 68.4725 53.6222 69.25C52.9462 70.3551 53.062 72.0579 51.6713 72.5783C50.2419 75.0521 52.5534 76.44 54.2725 77.2368C57.4274 78.2263 60.7369 78.811 63.7501 80.231C64.4326 81.1113 65.2246 81.9016 66.1066 82.5892C67.6712 84.0413 67.0982 88.6034 64.5228 86.3416C51.8065 85.1336 38.7233 85.9946 25.8719 85.8854C25.6336 85.9818 25.1636 86.1617 24.9318 86.2581C23.966 86.6821 23.0003 87.2155 21.9057 87.0998C21.6675 84.414 23.0775 81.7281 25.2924 80.231C28.6469 79.0166 32.1559 78.2134 35.4396 76.8127C36.9076 76.2215 37.9507 74.6666 37.1716 73.1116C35.7229 71.0876 35.0597 68.2347 32.3427 67.5858C32.1302 61.4688 31.5958 55.3775 31.6602 49.2926C32.626 48.1681 33.9974 47.6091 35.3366 47.0565C35.2207 46.2791 34.9503 45.5401 34.8344 44.7627ZM42.6637 45.6622C41.17 45.8614 39.6633 45.9899 38.1503 46.0477C37.9249 47.7119 37.8412 50.2307 35.5298 49.9544C36.3088 52.4924 34.0296 54.0024 34.1133 56.2835C35.2336 55.9429 35.4718 54.5422 36.2123 53.7454C41.479 53.5912 46.7587 53.5848 52.0319 53.7518C52.7852 54.555 53.3904 55.4803 54.06 56.3477C54.9099 49.9994 48.4198 45.5337 42.6637 45.6622ZM38.131 56.3027C37.0428 56.9902 37.4549 58.3589 37.3326 59.4319C40.3201 64.0004 34.9567 61.5266 34.8151 63.9104C34.506 65.1377 36.502 64.1675 36.8819 65.0606C38.073 66.1722 37.1137 68.3633 38.2919 69.6291C37.8412 70.9591 39.3543 72.4627 40.6871 71.9936C41.7752 74.1911 45.1877 72.0579 46.8231 72.7518C50.448 71.5374 51.3172 67.5087 52.2959 64.4052C52.8109 64.6622 53.957 65.671 54.1759 64.5851C54.4142 63.8655 54.0793 62.2013 53.0105 62.8245C52.0898 62.7217 51.4782 62.2462 51.182 61.3917C51.7164 60.1965 52.2315 57.6007 50.8987 56.9645C50.757 56.1035 50.1067 55.9622 48.9414 56.5533C47.7438 56.0393 45.0911 55.4867 44.5309 56.9003C42.3869 56.7718 40.2686 56.3863 38.131 56.3027ZM47.0999 75.3798C45.0009 76.1766 42.7345 75.7461 40.5712 75.5083C40.1527 79.5049 46.044 79.4214 48.3812 77.3653C51.549 76.8384 47.4991 73.2273 47.0999 75.3798Z" fill="#7FB5D9"/>
<path d="M97.2501 114.716C100.553 113.553 104.114 114.177 107.539 114.042C117.615 114.157 127.698 113.83 137.762 114.318C137.768 116.008 137.781 119.394 137.788 121.084C124.279 120.865 110.662 121.81 97.2115 120.57C97.16 118.623 97.205 116.657 97.2501 114.716Z" fill="#7FB5D9"/>
<path d="M228.707 126.963C231.07 126.706 233.394 126.892 235.68 127.529C237.624 129.096 239.524 126.982 241.475 127.728C242.106 128.659 242.917 129.45 243.818 130.131C246.226 133.382 248.622 138.445 246.458 142.243C245.537 144.447 246.729 147.01 246.658 149.388C247.083 151.238 244.507 150.686 243.979 151.945C243.316 153.757 241.578 155.537 242.234 157.593C244.887 161.204 250.038 160.356 253.689 162.476C254.365 163.357 255.157 164.147 256.045 164.835C256.94 166.19 257.893 169.673 255.144 168.504C242.286 167.488 229.331 168.221 216.441 168.079C216.223 168.208 215.785 168.452 215.566 168.574C214.941 169.069 214.278 169.544 213.885 168.529C213.042 165.567 215.276 162.875 217.813 161.808C220.71 160.806 223.852 160.427 226.614 159.045C228.758 158.396 229.344 155.685 227.458 154.355C226.814 153.674 226.447 152.806 225.964 152.022C225.391 150.891 223.53 150.66 223.402 149.291C223.408 148.218 223.421 146.072 223.421 144.999C223.234 141.035 221.863 136.833 223.846 133.132C224.374 131.345 226.209 130.632 227.754 129.932C228.018 128.916 227.812 127.702 228.707 126.963ZM231.398 129.63C230.626 132.084 227.625 132.277 226.209 134.147C225.694 135.567 225.217 137.025 225.365 138.555C226.486 137.97 227.136 136.357 228.572 136.55C233.008 137.893 237.444 135.978 241.925 136.711C243.181 136.987 243.31 138.67 244.7 138.503C244.269 135.689 242.795 133.228 241.333 130.838C237.921 132.56 234.785 129.077 231.398 129.63ZM228.456 142.224C232.776 143.091 237.122 142.339 241.462 142.269C241.385 141.266 241.822 139.898 240.741 139.319C237.843 140.212 234.746 139.518 231.785 139.718L231.81 139.094C228.99 136.254 226.64 141.967 228.456 142.224ZM228.591 144.222C227.245 143.946 228.147 145.963 228.037 146.696C229.1 148.392 232.184 147.955 232.699 146.002L233.137 146.265C234.315 143.676 229.093 141.832 228.591 144.222ZM236.749 146.04C237.251 148.456 241.945 148.238 241.475 145.558C241.996 143.811 239.878 144.17 238.79 143.843C237.096 142.313 235.017 145.025 236.749 146.04ZM234.502 144.839C234.315 145.706 234.109 146.574 233.967 147.454C232.686 149.144 231.07 150.397 228.591 149.478C228.063 153.706 233.311 156.874 237.026 155.325C238.919 154.888 239.929 152.986 241.359 151.836C243.593 146.689 238.899 150.32 236.923 148.835C236.066 147.531 235.448 146.072 234.502 144.839ZM243.503 145.668C242.292 146.079 242.621 148.019 244.024 147.557C245.319 147.39 244.533 145.404 243.503 145.668ZM229.924 160.234C230.516 161.044 231.533 160.967 232.435 160.979L232.467 161.583C234.012 161.307 237.006 162.387 237.612 160.979C238.506 160.96 239.569 161.101 240.097 160.195C240.187 158.769 239.24 156.893 237.605 158.056C236.279 157.317 234.437 157.349 233.111 158.049C231.289 156.97 230.432 158.788 229.924 160.234Z" fill="#7FB5D9"/>
<path d="M144.258 133.356C150.246 133.363 156.247 133.222 162.241 133.376C163.581 133.337 163.658 134.892 163.574 135.882C157.135 135.939 150.697 135.933 144.258 135.888C144.207 135.04 144.207 134.198 144.258 133.356Z" fill="#7FB5D9"/>
<path d="M37.5193 135.413C41.1635 132.778 45.5418 135.246 49.553 134.063C50.8343 134.423 52.0898 134.866 53.3196 135.387C54.6073 136.678 55.8951 137.976 57.1892 139.268C60.8914 145.083 57.0089 152.761 61.4194 158.178C62.0117 158.943 61.8508 159.964 61.7671 160.864C60.8528 161.956 58.3803 161.686 58.6057 163.46C62.031 164.989 65.5594 167.032 66.757 170.81C69.2423 174.627 66.1453 173.779 64.5356 173.753C64.2137 172.468 63.8596 171.189 63.5892 169.898C63.2608 168.883 62.3465 167.7 61.252 167.546C59.1594 167.598 59.9836 170.264 59.7968 171.806C59.5908 172.102 59.1723 172.699 58.9663 172.995C49.8621 173.335 40.7322 173.213 31.6215 173.117C31.5894 171.498 31.5121 168.259 31.4799 166.647C29.954 167.045 28.267 167.771 27.7713 169.416C26.6703 171.318 26.96 174.839 23.8373 173.811C23.3093 171.62 24.5262 169.872 25.3697 168.054C26.2324 167.353 27.0244 166.563 27.7133 165.696C29.2264 164.982 30.733 164.243 32.2268 163.479C32.4714 161.416 29.0976 162.104 28.8014 160.183C29.0461 159.103 29.5998 158.152 30.1342 157.201C32.3491 153.847 30.9841 149.658 31.8598 145.957C32.2654 143.393 33.1089 140.938 34.2871 138.638C35.3559 137.559 36.4376 136.479 37.5193 135.413ZM40.7772 136.794C34.7893 138.754 33.9137 146.638 34.0811 151.971C34.7443 154.785 32.7612 157.008 32.259 159.54C34.725 160.491 37.2489 161.583 40.0046 160.96C38.8843 158.178 35.1885 156.494 35.7616 152.838C36.032 150.731 33.6304 145.558 37.3519 145.513C41.9491 145.141 45.0847 140 50.0231 141.928C51.8709 142.532 53.6673 143.303 55.3478 144.305C55.483 148.186 55.7019 152.222 54.2275 155.89C53.9699 158.101 50.7828 158.666 50.8408 160.947C53.4935 161.101 56.2105 160.934 58.522 159.508C58.8504 157.246 56.4295 155.55 56.6741 153.275C57.0282 147.48 56.7643 139.518 50.4544 136.968C47.3253 136.601 43.9837 137.025 40.7772 136.794ZM42.007 146.959C40.3201 148.129 36.6501 147.602 38.6461 151.335C37.8734 154.914 40.7901 157.927 43.9772 158.84C47.2995 159.675 52.3989 157.208 52.2057 153.262L52.8045 153.237C52.1478 150.827 54.7812 144.781 50.8021 144.961C47.6923 143.322 44.5824 145.288 42.007 146.959ZM42.7861 161.789C41.8718 163.222 40.5905 164.423 39.9595 166.03C43.1917 168.304 47.6794 168.6 50.8279 165.998C51.4138 164.173 48.4842 164.398 48.3748 162.868C48.5615 160.041 43.9321 162.663 42.7861 161.789Z" fill="#7FB5D9"/>
<path d="M144.239 139.788C151.128 139.339 157.966 140.412 164.842 139.923C167.624 139.827 166.793 146.895 162.917 143.624C157.966 143.637 152.995 143.342 148.102 144.254C144.233 146.002 143.711 142.294 144.239 139.788Z" fill="#7FB5D9"/>
<path d="M172.144 140.103C173.779 139.82 175.421 139.711 177.076 139.763C179.516 145.963 172.504 143.065 169.356 143.592C167.167 139.73 170.438 140.591 172.144 140.103Z" fill="#7FB5D9"/>
<path d="M144.889 150.692C146.518 150.262 147.233 150.975 146.808 152.607C145.173 153.031 144.458 152.318 144.889 150.692Z" fill="#7FB5D9"/>
<path d="M144.889 155.833C146.518 155.402 147.233 156.115 146.808 157.747C145.173 158.171 144.458 157.458 144.889 155.833Z" fill="#7FB5D9"/>
<path d="M144.889 160.973C146.518 160.542 147.233 161.256 146.808 162.888C145.173 163.312 144.458 162.599 144.889 160.973Z" fill="#7FB5D9"/>
<path d="M162.286 170.611C163.407 170.618 165.647 170.624 166.768 170.624C166.761 171.742 166.755 173.978 166.755 175.096C165.634 175.09 163.394 175.083 162.273 175.083C162.28 173.965 162.286 171.729 162.286 170.611Z" fill="#7FB5D9"/>
<path d="M171.944 170.624C176.445 170.573 180.945 170.547 185.452 170.63C186.463 173.033 185.015 176.889 181.589 175.102C179.175 175.096 174.346 175.083 171.931 175.077C171.938 173.965 171.944 171.742 171.944 170.624Z" fill="#7FB5D9"/>
<path d="M97.2115 182.832C126.636 182.807 156.054 182.774 185.478 182.845C185.768 184.708 183.135 185.814 181.589 184.741C154.541 184.721 127.492 184.779 100.45 184.715C99.2912 184.284 96.8509 184.651 97.2115 182.832Z" fill="#7FB5D9"/>
<path d="M97.2372 187.33C126.636 187.304 156.041 187.285 185.44 187.336C185.44 187.645 185.44 188.268 185.446 188.577C156.047 188.602 126.642 188.622 97.2437 188.57C97.2437 188.262 97.2437 187.638 97.2372 187.33Z" fill="#7FB5D9"/>
</svg>
