<svg width="206" height="206" viewBox="0 0 206 206" fill="none" xmlns="http://www.w3.org/2000/svg">
<path d="M14.2495 56.9918C38.1263 56.9248 62.0032 56.9631 85.88 56.9727C85.8226 75.947 86.0332 94.9118 85.7651 113.877C85.3343 113.79 84.4727 113.618 84.0419 113.532C81.1985 113.877 79.4273 116.136 78.47 118.635C75.4064 118.979 72.3332 120.138 71.2322 123.297C67.0294 118.788 63.5541 113.436 58.4035 109.923C58.4418 109.425 58.5279 108.42 58.5662 107.922C62.3191 107.999 66.072 107.989 69.8153 107.922C69.9111 102.446 69.777 96.9605 69.9302 91.475C66.1486 90.7857 62.3095 90.9867 58.4896 91.0633C58.5375 87.3201 58.5471 83.5674 58.3556 79.8242C52.7837 79.9487 47.2214 79.8051 41.6495 79.9391C41.5442 83.6248 41.525 87.3201 41.5824 91.0154C37.8583 90.9963 34.1437 91.0059 30.4195 91.0825C30.3142 96.6924 30.2567 102.302 30.4386 107.903C34.1437 108.008 37.8487 107.999 41.5537 107.941C41.5729 111.742 41.3527 115.571 42.0324 119.343C45.3641 119.295 48.6957 119.285 52.0274 119.257C58.2407 126.159 64.4445 133.09 70.4568 140.175C67.0964 138.767 63.8509 136.345 60.0597 136.527C55.3973 137.015 53.5592 143.707 57.0919 146.656C60.232 148.972 63.7839 150.705 67.2879 152.428C68.341 152.869 69.4228 153.28 70.4951 153.692C69.8728 153.74 68.6186 153.816 67.9963 153.855C50.1031 153.596 32.1906 153.836 14.2974 153.74C14.2399 121.497 14.3261 89.2444 14.2495 56.9918Z" fill="white"/>
<path d="M87.5267 3.15138C91.0115 0.183642 96.2866 1.63879 100.537 0.872925C100.566 1.7441 100.614 2.62484 100.671 3.49602C96.7845 3.38114 92.9454 4.22359 89.1064 4.28103C88.7138 3.99383 87.9288 3.429 87.5267 3.15138Z" fill="#275158"/>
<path d="M108.522 1.34201C112.648 0.710173 116.851 1.93556 120.939 2.59612C120.949 3.1418 120.968 4.23316 120.968 4.77884C116.765 4.53951 112.552 4.05127 108.397 3.37156C108.436 2.86417 108.493 1.8494 108.522 1.34201Z" fill="#285664"/>
<path d="M68.9154 6.73181C72.6492 5.20008 76.6031 4.20445 80.5666 3.5056C80.5379 4.07043 80.4709 5.19051 80.4422 5.75533C77.1967 7.02859 73.6736 7.60298 70.3898 8.82837C69.0686 9.91016 67.2017 7.56469 68.9154 6.73181Z" fill="#234E54"/>
<path d="M137.052 9.74741C146.635 8.29226 156.783 9.68997 165.217 14.6107C177.931 21.5992 186.509 35.5188 186.854 50.0511C187.409 61.1275 183.254 72.223 175.806 80.3986C169.344 87.0329 161.015 92.0685 151.766 93.4949C137.032 96.2425 121.092 90.4315 111.662 78.7616C99.5992 64.7079 98.7758 42.6605 109.355 27.5251C115.693 18.1815 125.946 11.6716 137.052 9.74741ZM121.628 18.9378C113.06 24.6914 107.067 34.0541 105.123 44.1731C102.826 55.3452 105.947 67.3119 112.859 76.3204C116.478 68.2979 126.836 70.1839 132.925 65.4834C133.576 63.6357 133.337 61.6349 133.442 59.7202C131.164 57.3077 130.723 53.7465 128.253 51.5159C127.334 47.6004 125.601 43.4168 127.842 39.6066C127.602 33.7478 129.268 27.6112 133.816 23.6287C134.189 21.9151 133.931 19.7994 135.472 18.5932C138.784 15.1468 144.155 14.8404 148.521 16.0658C151.728 16.9849 154.074 19.9239 154.16 23.2745C156.094 25.9838 158.554 28.5111 159.301 31.9193C160.718 35.3178 159.205 39.3386 161.35 42.4595C161.158 45.4751 160.507 48.4428 159.856 51.3914C157.338 53.6603 156.773 57.2216 154.495 59.6915C154.61 62.0274 153.892 65.2345 156.323 66.6322C163.169 69.418 172.091 68.633 176.811 75.2769C184.844 63.8176 186.806 48.2035 180.861 35.4039C175.404 23.0926 163.389 13.9022 150.005 12.1407C140.153 10.6377 129.737 13.1268 121.628 18.9378ZM136.219 21.7141C141.12 19.292 146.855 19.3207 151.747 21.7428C148.396 16.5732 139.589 16.5923 136.219 21.7141ZM137.521 24.1553C132.514 27.1039 130.273 33.0298 130.225 38.6206C131.02 39.2907 131.815 39.9513 132.619 40.6118C133.863 39.2237 135.118 37.8356 136.381 36.4666C135.252 35.2986 134.141 34.1211 133.04 32.934C133.433 32.4841 134.208 31.5842 134.591 31.1342C139.531 36.6868 147.267 39.5683 154.552 37.4143C155.481 38.2376 156.429 39.0514 157.396 39.846C157.836 35.3274 156.946 30.4354 153.767 27.0177C149.938 22.3172 142.729 21.0918 137.521 24.1553ZM138.631 37.8834C136.783 39.9608 134.945 42.0478 132.887 43.9242C131.767 42.9765 130.494 42.6222 129.067 42.8807C129.402 45.3028 129.833 47.7248 130.522 50.0799C132.619 50.7404 132.494 53.1912 133.356 54.8474C134.419 57.5758 137.195 58.8873 139.598 60.1989C141.542 61.2328 143.782 62.305 146.032 61.5774C148.425 60.5914 150.665 59.1937 152.685 57.5758C154.591 55.9196 155.002 53.3061 156.113 51.1712C158.248 49.4002 158.085 46.3558 158.956 43.9434C157.769 41.8085 155.079 42.067 153.614 40.2863C148.492 41.2054 143.15 40.564 138.631 37.8834ZM135.998 61.2137C136.209 63.5783 135.587 65.8567 134.467 67.9246C138.066 72.6921 141.388 77.6606 144.921 82.476C147.525 77.3734 150.876 72.7017 153.547 67.6469C152.073 65.7897 151.9 63.4442 152.063 61.1754C149.928 62.5061 147.803 64.3058 145.122 64.2484C141.714 64.7845 138.842 62.6975 135.998 61.2137ZM119.465 73.2952C117.32 74.0036 116.162 76.0715 114.917 77.7851C123.294 87.7509 137.042 93.0163 149.928 90.9293C159.167 89.5507 167.841 84.8023 174.14 77.9287C175.471 76.3395 172.752 74.9897 171.775 74.0132C167.266 71.505 161.886 71.3135 157.07 69.5807C157.539 71.2465 158.209 72.8835 158.343 74.6259C154.236 78.8669 149.392 82.3516 145.084 86.4107C140.01 82.8111 135.3 78.7137 130.417 74.8461C130.637 73.0654 130.886 71.2944 131.135 69.5137C127.286 70.9019 123.323 71.9454 119.465 73.2952ZM133.088 70.9785C132.313 74.5876 136.247 75.9662 138.44 77.9383C136.755 75.5449 135.3 72.941 133.088 70.9785ZM150.225 78.4169C151.996 76.9714 153.719 75.4588 155.443 73.9558C155.356 73.1899 155.194 71.6582 155.108 70.8923C152.982 73.0367 151.872 75.9279 150.225 78.4169Z" fill="#235E6B"/>
<path d="M49.452 16.0275C53.0709 13.5959 56.8812 11.1355 61.1798 10.1399C61.2564 10.7047 61.3904 11.8344 61.467 12.3992C57.9248 14.0554 54.4495 15.8456 51.1274 17.923C50.5722 17.2912 50.0073 16.6594 49.452 16.0275Z" fill="#2C5A5E"/>
<path d="M121.628 18.9378C129.737 13.1268 140.153 10.6377 150.005 12.1407C163.389 13.9022 175.404 23.0926 180.861 35.4039C186.806 48.2035 184.844 63.8176 176.811 75.2769C172.091 68.633 163.169 69.418 156.323 66.6321C153.892 65.2344 154.61 62.0274 154.495 59.6915C156.773 57.2216 157.338 53.6603 159.856 51.3914C160.507 48.4428 161.158 45.4751 161.35 42.4595C159.205 39.3386 160.718 35.3178 159.301 31.9192C158.554 28.5111 156.094 25.9838 154.16 23.2745C154.074 19.9239 151.728 16.9848 148.521 16.0658C144.155 14.8404 138.784 15.1468 135.472 18.5932C133.931 19.7994 134.189 21.9151 133.816 23.6287C129.268 27.6112 127.602 33.7478 127.842 39.6066C125.601 43.4168 127.334 47.6004 128.253 51.5159C130.723 53.7464 131.164 57.3077 133.442 59.7202C133.337 61.6349 133.576 63.6357 132.925 65.4834C126.836 70.1839 116.478 68.2979 112.859 76.3204C105.947 67.3119 102.826 55.3452 105.123 44.1731C107.067 34.0541 113.06 24.6914 121.628 18.9378Z" fill="#C5FBFD"/>
<path d="M44.1004 82.2367C48.0734 82.3037 52.037 82.275 56.0101 82.3133C55.943 86.0756 55.742 89.8666 56.259 93.6098C59.9065 93.5811 63.5446 93.5907 67.1921 93.5428C67.2592 97.4966 67.2304 101.46 67.2209 105.414C63.6499 105.385 60.0789 105.433 56.5079 105.299C56.0388 106.945 55.8952 108.65 55.8569 110.354C53.2241 111.426 51.204 113.714 51.4721 116.701C49.0212 116.739 46.5704 116.739 44.1195 116.701C44.1004 113.13 44.3493 109.549 44.0716 105.998C40.5485 104.629 36.4797 105.739 32.7459 105.366C32.8512 101.45 32.88 97.5349 32.7076 93.6194C36.4701 93.629 40.223 93.6002 43.9855 93.5524C44.3014 89.7901 44.1578 86.0086 44.1004 82.2367Z" fill="#C5FBFD"/>
<path d="M136.219 21.7141C139.589 16.5923 148.396 16.5732 151.747 21.7428C146.855 19.3207 141.12 19.292 136.219 21.7141Z" fill="#D0FFFF"/>
<path d="M41.6303 20.8333C42.9323 20.5461 44.0141 20.9099 44.3492 22.3363C40.7304 24.6722 37.9923 28.3005 34 30.0429C33.8947 29.5068 33.6937 28.4346 33.5884 27.8984C35.9531 25.2083 39.0645 23.3224 41.6303 20.8333Z" fill="#325968"/>
<path d="M137.521 24.1553C142.729 21.0918 149.938 22.3172 153.767 27.0177C156.946 30.4354 157.836 35.3273 157.396 39.846C156.429 39.0514 155.481 38.2376 154.552 37.4143C147.267 39.5683 139.531 36.6868 134.591 31.1342C134.208 31.5842 133.433 32.4841 133.04 32.934C134.141 34.1211 135.252 35.2986 136.381 36.4666C135.118 37.8356 133.863 39.2237 132.619 40.6118C131.815 39.9513 131.02 39.2907 130.225 38.6206C130.273 33.0298 132.514 27.1039 137.521 24.1553Z" fill="#FBFDFB"/>
<path d="M91.4232 27.64C97.3876 27.2187 103.438 25.9551 109.355 27.5251C98.7758 42.6605 99.5992 64.7079 111.662 78.7616C121.092 90.4315 137.032 96.2425 151.766 93.4949C161.015 92.0685 169.344 87.0329 175.806 80.3986C177.826 87.9711 179.358 95.7925 179.099 103.671C179.023 107.711 179.3 111.857 177.864 115.715L176.859 115.743C166.433 115.609 156.007 115.83 145.582 115.628C145.103 120.607 145.285 125.613 145.496 130.601C145.515 131.53 145.534 132.458 145.515 133.387L145.496 134C145.151 144.435 145.275 154.879 145.4 165.324C149.842 165.238 154.284 165.218 158.717 165.324C154.801 165.477 150.876 165.4 146.96 165.419C144.136 167.765 140.785 169.325 137.808 171.441C135.194 166.913 129.163 164.654 124.376 167.066C120.336 168.789 118.44 173.231 118.383 177.405C118.115 177.683 117.569 178.238 117.301 178.506C110.628 179.205 103.955 180.009 97.2344 179.531C85.0375 178.458 72.9268 174.83 62.6255 168.109C70.294 167.832 77.9817 168.358 85.6407 167.841C89.0872 166.281 88.1968 161.992 88.3405 158.929C93.5486 159.034 98.7758 157.454 102.816 154.104C111.442 147.489 113.816 134.325 108.445 124.953C105.305 119.668 100.614 115.571 96.7749 110.823C94.841 108.209 90.9254 107.75 88.35 109.664C88.417 89.2156 88.3213 68.7574 88.3788 48.2992C85.028 46.0591 80.9017 46.7771 77.1105 46.7292C68.8867 46.7866 60.6533 46.7101 52.4295 46.6909L51.3285 46.6813C62.4053 36.5719 76.5935 29.8801 91.4232 27.64ZM126.204 113.455C122.978 114.135 120.326 116.71 119.158 119.745C117.397 124.426 119.522 130.113 124.079 132.286C130.245 136.02 138.928 130.793 138.899 123.699C139.416 117.074 132.561 111.665 126.204 113.455ZM124.443 140.5C121.647 141.907 119.436 144.492 118.775 147.584C117.368 153.29 121.829 159.675 127.803 159.838C133.988 160.805 139.723 154.803 138.823 148.695C138.373 142.003 130.436 137.465 124.443 140.5Z" fill="#70EAED"/>
<path d="M27.0878 34.3126C27.4899 34.3222 28.3133 34.3605 28.7154 34.3796C28.7824 34.82 28.9069 35.7007 28.9739 36.1411C27.7389 37.4239 26.5517 38.7546 25.489 40.1906C24.4934 40.1523 23.4498 40.0757 23.2584 38.8791C24.4646 37.2995 25.805 35.8252 27.0878 34.3126Z" fill="#1F484A"/>
<path d="M138.631 37.8834C143.15 40.564 148.492 41.2054 153.614 40.2863C155.079 42.067 157.769 41.8085 158.956 43.9434C158.085 46.3558 158.248 49.4002 156.113 51.1712C155.002 53.3061 154.591 55.9196 152.685 57.5758C150.665 59.1937 148.425 60.5914 146.032 61.5774C143.782 62.305 141.542 61.2328 139.598 60.1989C137.195 58.8873 134.419 57.5758 133.356 54.8474C132.494 53.1912 132.619 50.7404 130.522 50.0799C129.833 47.7248 129.402 45.3028 129.067 42.8807C130.494 42.6222 131.767 42.9765 132.887 43.9242C134.945 42.0478 136.783 39.9609 138.631 37.8834Z" fill="#FCFEFD"/>
<path d="M11.7795 48.1843C13.3687 47.4568 14.9579 46.442 16.7961 46.6718C28.4952 46.8249 40.2038 46.5186 51.8933 46.8441C46.197 49.0364 40.0028 47.5334 34.0671 47.945C28.1122 48.3184 21.9467 47.1696 16.1834 49.1034C15.6951 49.2278 14.7377 49.4672 14.2591 49.5916C14.2399 51.1904 14.2303 52.7987 14.2208 54.407C38.1072 54.3496 61.9936 54.3591 85.88 54.3974C85.88 55.0484 85.88 56.3313 85.88 56.9727C62.0032 56.9631 38.1263 56.9248 14.2495 56.9918C14.3261 89.2444 14.2399 121.497 14.2974 153.74C32.1906 153.836 50.103 153.596 67.9963 153.855C70.5716 154.984 73.3097 155.664 76.0382 156.334C55.4643 155.836 34.8521 156.085 14.2782 156.172C14.0197 159.264 14.2495 162.365 14.5367 165.448C15.0728 165.458 16.1451 165.486 16.6716 165.506C16.9684 166.166 17.5524 167.487 17.8396 168.148C16.1355 168.081 14.2016 168.253 12.9187 166.913C11.7124 165.218 11.6646 163.074 11.6933 161.092C11.7603 123.45 11.588 85.8171 11.7795 48.1843Z" fill="#164E5D"/>
<path d="M151.757 148.341C162.077 148.168 172.417 148.092 182.728 148.369C182.699 148.915 182.651 150.016 182.622 150.571C172.359 150.897 162.058 150.686 151.785 150.657C151.785 150.073 151.766 148.915 151.757 148.341Z" fill="#164E5D"/>
<path d="M51.8934 46.8441L52.4295 46.6909C60.6533 46.71 68.8867 46.7866 77.1105 46.7292C80.9017 46.7771 85.028 46.0591 88.3788 48.2992C88.3213 68.7574 88.4171 89.2156 88.3501 109.664C87.7756 111.378 87.1533 113.063 86.5119 114.757C86.33 114.537 85.9566 114.097 85.7652 113.877C86.0332 94.9118 85.8226 75.947 85.8801 56.9727C85.8801 56.3312 85.8801 55.0484 85.8801 54.3974C85.8896 52.7029 85.8896 51.0085 85.9088 49.3236C62.6638 48.9885 39.4188 49.5055 16.1834 49.1034C21.9468 47.1696 28.1123 48.3184 34.0671 47.945C40.0028 47.5334 46.197 49.0364 51.8934 46.8441Z" fill="#1A5E69"/>
<path d="M14.2591 49.5916C14.7378 49.4672 15.6951 49.2278 16.1834 49.1034C39.4188 49.5055 62.6638 48.9885 85.9087 49.3236C85.8896 51.0085 85.8896 52.703 85.88 54.3974C61.9936 54.3591 38.1072 54.3496 14.2208 54.407C14.2303 52.7987 14.2399 51.1904 14.2591 49.5916Z" fill="#C8FDFF"/>
<path d="M135.998 61.2136C138.842 62.6975 141.714 64.7845 145.122 64.2484C147.803 64.3058 149.928 62.506 152.063 61.1753C151.9 63.4442 152.073 65.7897 153.547 67.6469C150.876 72.7016 147.525 77.3734 144.921 82.476C141.388 77.6606 138.066 72.6921 134.467 67.9246C135.587 65.8567 136.209 63.5783 135.998 61.2136Z" fill="#FCFCFD"/>
<path d="M119.465 73.2952C123.323 71.9454 127.286 70.9019 131.135 69.5137C130.886 71.2944 130.637 73.0654 130.417 74.8461C135.3 78.7137 140.01 82.8111 145.084 86.4107C149.392 82.3516 154.236 78.8669 158.343 74.6259C158.209 72.8835 157.539 71.2465 157.07 69.5807C161.886 71.3135 167.266 71.505 171.775 74.0132C172.752 74.9897 175.471 76.3395 174.14 77.9287C167.841 84.8023 159.167 89.5507 149.928 90.9293C137.042 93.0163 123.294 87.7509 114.917 77.7851C116.162 76.0715 117.32 74.0036 119.465 73.2952Z" fill="#FAFDFD"/>
<path d="M133.088 70.9787C135.3 72.9412 136.755 75.5451 138.44 77.9385C136.247 75.9664 132.313 74.5878 133.088 70.9787Z" fill="#C5FBFE"/>
<path d="M150.225 78.4169C151.872 75.9279 152.982 73.0367 155.108 70.8923C155.194 71.6582 155.356 73.1899 155.443 73.9558C153.719 75.4588 151.996 76.9714 150.225 78.4169Z" fill="#C5FBFE"/>
<path d="M147.525 172.283C151.335 172.274 155.155 172.36 158.966 172.264C159.09 175.232 159.243 178.219 159.76 181.158C162.01 180.823 164.04 179.751 166.06 178.765C166.625 180.076 167.257 181.378 167.936 182.651C161.11 182.537 154.294 182.709 147.468 182.556C147.64 179.128 147.65 175.711 147.525 172.283Z" fill="#C5FBFE"/>
<path d="M165.323 175.979C166.778 175.136 168.243 174.323 169.755 173.595C169.056 174.619 167.888 175.893 168.884 177.156C170.569 180.718 172.57 184.126 174.274 187.677C169.822 185.121 170.425 177.625 165.323 175.979Z" fill="#C5FBFE"/>
<path d="M200.19 81.7006C200.075 79.336 197.289 75.4492 200.755 74.4057C202.373 78.3499 202.986 82.5909 203.828 86.7553C200.391 88.6795 200.956 83.7684 200.19 81.7006Z" fill="#23545B"/>
<path d="M2.07175 84.6396C2.91424 82.3803 2.17705 77.6319 5.81506 78.2542C5.44169 82.476 4.09179 86.5351 3.70885 90.757C-0.0249013 91.6281 1.89942 86.6691 2.07175 84.6396Z" fill="#27525F"/>
<path d="M41.6495 79.9391C47.2214 79.8051 52.7837 79.9487 58.3556 79.8242C58.5471 83.5674 58.5375 87.3201 58.4896 91.0633C62.3096 90.9867 66.1486 90.7857 69.9302 91.475C69.7771 96.9605 69.9111 102.446 69.8154 107.922C66.072 107.989 62.3191 107.999 58.5662 107.922C58.5279 108.42 58.4418 109.425 58.4035 109.923C63.5541 113.436 67.0294 118.788 71.2323 123.297C72.3332 120.138 75.4064 118.979 78.47 118.635C79.4274 116.136 81.1985 113.877 84.0419 113.532C83.6877 114.221 82.9696 115.59 82.6154 116.279C82.041 117.409 81.3038 118.51 81.0932 119.783C81.9357 121.526 83.1515 123.048 84.2238 124.647C83.7643 124.943 82.8452 125.527 82.3856 125.824C80.7485 124.216 79.3795 122.052 77.0531 121.392C75.9138 121.899 74.1044 122.272 73.9129 123.728C72.8119 126.571 76.8808 128.045 76.3542 130.793C74.5256 131.444 73.5108 129.433 72.3045 128.505C68.2644 123.594 63.8318 119.008 59.8204 114.068C58.8343 113.532 57.8482 113.005 56.8621 112.479C55.4261 113.695 52.621 115.437 54.3634 117.562C56.9387 121.095 60.0885 124.177 62.8744 127.557C63.1999 127.901 63.8414 128.591 64.1669 128.945C64.4062 129.203 64.8849 129.74 65.1242 130.008C67.9485 133.176 70.6961 136.422 73.5874 139.543C74.9277 141.036 76.4882 142.51 76.9765 144.53C74.899 145.478 72.8981 143.908 70.9929 143.219C67.6708 141.879 64.5594 139.734 60.9597 139.208C58.3939 138.853 56.5175 142.52 58.5471 144.272C61.7639 147.077 65.8997 148.58 69.5664 150.715C68.8005 151.28 68.0442 151.854 67.2879 152.428C63.7839 150.705 60.2321 148.972 57.0919 146.656C53.5592 143.707 55.3973 137.015 60.0597 136.527C63.8509 136.345 67.0964 138.767 70.4568 140.175C64.4445 133.09 58.2407 126.159 52.0274 119.257C48.6957 119.285 45.3641 119.295 42.0324 119.343C41.3527 115.571 41.5729 111.742 41.5537 107.941C37.8487 107.999 34.1437 108.008 30.4387 107.903C30.2568 102.302 30.3142 96.6924 30.4195 91.0825C34.1437 91.0059 37.8583 90.9963 41.5825 91.0154C41.525 87.3201 41.5442 83.6248 41.6495 79.9391ZM44.1004 82.2367C44.1578 86.0086 44.3014 89.7901 43.9855 93.5524C40.223 93.6003 36.4701 93.629 32.7076 93.6194C32.88 97.5349 32.8512 101.45 32.7459 105.366C36.4797 105.739 40.5485 104.629 44.0716 105.998C44.3493 109.549 44.1004 113.13 44.1195 116.701C46.5704 116.739 49.0212 116.739 51.4721 116.701C51.2041 113.714 53.2241 111.426 55.8569 110.354C55.8952 108.65 56.0388 106.945 56.5079 105.299C60.0789 105.433 63.6499 105.385 67.2209 105.414C67.2304 101.46 67.2592 97.4966 67.1922 93.5428C63.5446 93.5907 59.9066 93.5811 56.259 93.6098C55.742 89.8666 55.943 86.0756 56.0101 82.3133C52.037 82.275 48.0735 82.3037 44.1004 82.2367Z" fill="#245661"/>
<path d="M202.584 104.715C203.254 101.278 200.966 97.1615 203.484 94.2321C204.383 94.9022 204.872 95.783 204.939 96.8552C205.14 100.273 205.255 103.71 204.996 107.127C203.177 109.166 202.057 106.266 202.584 104.715Z" fill="#335659"/>
<path d="M0.425051 99.4591C0.855869 98.4444 2.01429 98.4635 2.92379 98.3008C3.0291 102.532 3.0291 106.773 3.05782 111.014C2.52169 111.024 1.45901 111.033 0.932457 111.033C0.319739 107.214 0.118693 103.317 0.425051 99.4591Z" fill="#244D62"/>
<path d="M88.3501 109.664C90.9254 107.75 94.841 108.209 96.7749 110.823C100.614 115.571 105.305 119.668 108.445 124.953C113.816 134.325 111.442 147.489 102.816 154.104C98.7758 157.454 93.5486 159.034 88.3405 158.929C88.1969 161.992 89.0873 166.281 85.6407 167.841C77.9818 168.358 70.2941 167.832 62.6255 168.109C47.6905 168.129 32.7651 168.033 17.8397 168.148C17.5525 167.487 16.9685 166.166 16.6717 165.506C39.6007 165.553 62.5394 165.592 85.4588 165.467C85.7077 163.313 85.9088 161.159 86.0619 158.996C82.625 158.469 79.3508 157.33 76.0383 156.334C73.3098 155.664 70.5717 154.984 67.9964 153.855C68.6187 153.817 69.8728 153.74 70.4951 153.692C69.4228 153.28 68.341 152.869 67.2879 152.428C68.0442 151.854 68.8006 151.28 69.5665 150.715C75.0139 153.319 80.7007 155.655 86.7034 156.516C95.7314 157.493 104.96 151.481 107.746 142.836C110.389 135.886 108.378 127.739 103.477 122.292C100.279 118.74 97.2728 114.997 93.855 111.646C92.4955 110.076 90.4659 111.349 88.9341 111.818C88.3501 114.24 89.4702 116.327 90.7339 118.299C90.0446 120.894 87.9863 118.606 87.0193 117.543C85.9758 116.145 84.1472 116.346 82.6154 116.279C82.9697 115.59 83.6877 114.221 84.0419 113.532C84.4727 113.618 85.3343 113.79 85.7652 113.877C85.9566 114.097 86.33 114.537 86.5119 114.757C87.1533 113.063 87.7757 111.378 88.3501 109.664Z" fill="#205762"/>
<path d="M88.934 111.818C90.4658 111.349 92.4955 110.076 93.8549 111.646C97.2727 114.997 100.279 118.74 103.476 122.292C108.378 127.739 110.389 135.886 107.746 142.836C104.96 151.481 95.7314 157.493 86.7034 156.516C80.7006 155.655 75.0139 153.319 69.5664 150.715C65.8997 148.58 61.7638 147.077 58.5471 144.272C56.5174 142.52 58.3939 138.853 60.9596 139.208C64.5594 139.734 67.6708 141.879 70.9929 143.219C72.8981 143.908 74.899 145.478 76.9765 144.53C76.4882 142.51 74.9277 141.036 73.5874 139.543C70.6961 136.422 67.9485 133.176 65.1242 130.008C64.8849 129.74 64.4062 129.203 64.1668 128.945C63.8413 128.591 63.1999 127.901 62.8744 127.557C60.0884 124.177 56.9387 121.095 54.3634 117.562C52.6209 115.437 55.426 113.695 56.8621 112.479C57.8482 113.005 58.8343 113.532 59.8204 114.068C63.8318 119.008 68.2644 123.593 72.3045 128.505C73.5108 129.433 74.5256 131.444 76.3542 130.793C76.8807 128.045 72.8119 126.571 73.9129 123.728C74.1044 122.272 75.9138 121.899 77.0531 121.392C79.3795 122.052 80.7485 124.216 82.3856 125.824C82.8451 125.527 83.7642 124.943 84.2238 124.647C83.1515 123.048 81.9357 121.526 81.0932 119.783C81.3038 118.51 82.041 117.409 82.6154 116.279C84.1472 116.346 85.9757 116.145 87.0193 117.543C87.9862 118.606 90.0446 120.894 90.7339 118.299C89.4702 116.327 88.35 114.24 88.934 111.818Z" fill="#FEFFFF"/>
<path d="M126.204 113.455C132.561 111.665 139.416 117.074 138.899 123.699C138.928 130.793 130.245 136.02 124.079 132.286C119.522 130.113 117.397 124.426 119.158 119.745C120.326 116.71 122.978 114.135 126.204 113.455ZM125.343 116.423C119.771 118.836 119.646 127.643 125.247 130.094C130.254 132.985 137.032 128.371 136.276 122.703C136.266 117.514 129.871 113.79 125.343 116.423Z" fill="#175E67"/>
<path d="M177.864 115.715C185.064 115.494 192.273 115.648 199.482 115.609C200.114 120.205 199.855 124.886 199.74 129.5C199.539 129.787 199.147 130.343 198.946 130.62C190.607 130.802 182.268 130.438 173.939 130.821C173.958 130.151 174.006 128.801 174.025 128.131C181.78 128.131 189.544 128.112 197.308 128.15C197.289 124.828 197.299 121.507 197.261 118.185C196.562 118.156 195.164 118.108 194.465 118.089C188.711 116.184 182.383 118.539 176.859 115.743L177.864 115.715Z" fill="#20515C"/>
<path d="M125.343 116.423C129.871 113.79 136.266 117.514 136.276 122.703C137.032 128.371 130.254 132.985 125.247 130.094C119.647 127.643 119.771 118.836 125.343 116.423Z" fill="#FDFDFE"/>
<path d="M145.496 130.601C145.285 125.613 145.103 120.607 145.582 115.628C156.007 115.83 166.433 115.609 176.859 115.743C182.383 118.539 188.711 116.184 194.465 118.089C178.831 118.271 163.197 118.156 147.563 118.146C147.602 121.478 147.611 124.8 147.535 128.131C156.362 128.141 165.198 128.122 174.025 128.131C174.006 128.801 173.958 130.151 173.939 130.821C164.461 130.362 154.974 130.726 145.496 130.601Z" fill="#0C5963"/>
<path d="M147.563 118.146C163.197 118.156 178.831 118.271 194.465 118.089C195.164 118.108 196.562 118.156 197.261 118.185C197.299 121.507 197.289 124.828 197.308 128.15C189.544 128.112 181.78 128.131 174.025 128.131C165.198 128.122 156.362 128.141 147.535 128.131C147.611 124.8 147.602 121.478 147.563 118.146Z" fill="#C5FAFC"/>
<path d="M2.1196 118.912L3.43121 118.51C5.47041 122.11 5.46083 126.762 6.69584 130.783C5.86293 130.869 5.03003 130.955 4.19711 131.042C3.51738 127.03 1.55476 122.943 2.1196 118.912Z" fill="#26525C"/>
<path d="M145.496 130.601C154.974 130.726 164.461 130.362 173.939 130.821C173.623 131.386 172.982 132.516 172.656 133.09C179.013 134.488 185.562 133.454 192.005 133.655C195.853 133.397 199.884 134.431 203.579 132.975C203.713 133.291 203.972 133.942 204.106 134.258C194.015 133.799 183.877 133.885 173.776 134.172C164.356 133.76 154.916 134.019 145.496 134L145.515 133.387C145.534 132.458 145.515 131.53 145.496 130.601Z" fill="#81ECF8"/>
<path d="M145.4 165.324C145.275 154.879 145.151 144.435 145.496 134C154.916 134.019 164.356 133.76 173.776 134.172C173.508 134.746 172.982 135.886 172.714 136.46C164.317 136.498 155.931 136.441 147.535 136.498C147.583 145.201 147.669 153.912 147.506 162.624C147.286 162.614 146.845 162.595 146.625 162.586C146.214 163.495 145.811 164.405 145.4 165.324Z" fill="#0D5A61"/>
<path d="M173.776 134.172C183.877 133.885 194.015 133.799 204.106 134.258C204.288 134.526 204.661 135.053 204.843 135.311C204.269 145.258 204.872 155.233 204.556 165.19C192.254 165.419 179.932 165.314 167.63 165.218C169.688 166.75 171.728 168.301 173.767 169.861C182.45 170.072 191.153 169.622 199.826 170.11C199.807 175.108 199.941 180.105 199.721 185.102C191.717 185.351 183.714 185.14 175.71 185.217C176.237 186.146 176.763 187.084 177.29 188.022C175.844 188.922 174.418 189.908 172.809 190.511C170.665 189.841 170.425 186.988 169.382 185.274C161.407 185.179 153.423 185.15 145.448 185.313C145.151 180.181 145.113 175.021 145.333 169.89C149.842 169.919 154.351 169.881 158.86 169.938C158.803 168.397 158.765 166.855 158.717 165.324C154.284 165.218 149.842 165.237 145.4 165.324C145.811 164.405 146.214 163.495 146.625 162.586C146.845 162.595 147.286 162.614 147.506 162.624C151.182 162.758 154.868 162.71 158.554 162.672C158.449 162.002 158.257 160.681 158.162 160.01C158.659 159.809 159.655 159.398 160.162 159.197C161.991 160.575 163.619 162.835 166.156 162.701C178.142 162.739 190.138 162.681 202.124 162.681C201.923 153.951 202.057 145.21 202.057 136.479C192.282 136.45 182.498 136.498 172.714 136.46C172.982 135.886 173.508 134.746 173.776 134.172ZM160.967 162.586C161.196 167.774 161.627 172.944 161.886 178.133C163.025 177.405 164.155 176.668 165.323 175.979C170.425 177.625 169.822 185.121 174.274 187.677C172.57 184.126 170.569 180.718 168.884 177.156C167.888 175.893 169.056 174.619 169.755 173.595C170.54 173.346 172.11 172.839 172.896 172.58C169.028 169.115 164.356 166.578 160.967 162.586ZM147.525 172.283C147.65 175.711 147.64 179.128 147.468 182.556C154.294 182.709 161.11 182.537 167.936 182.651C167.257 181.378 166.625 180.076 166.06 178.765C164.04 179.751 162.01 180.823 159.76 181.158C159.243 178.219 159.09 175.232 158.966 172.264C155.155 172.36 151.336 172.274 147.525 172.283ZM170.962 176.055C172.149 178.248 173.326 180.44 174.513 182.642C182.096 182.661 189.697 182.517 197.28 182.738C197.27 179.234 197.28 175.72 197.299 172.216C190.387 172.398 183.465 172.274 176.553 172.274C175.088 174.074 173.039 175.146 170.962 176.055Z" fill="#1F5363"/>
<path d="M147.535 136.498C155.931 136.441 164.317 136.498 172.714 136.46C182.498 136.498 192.282 136.45 202.057 136.479C202.057 145.21 201.923 153.951 202.124 162.681C190.138 162.681 178.142 162.739 166.156 162.701C163.619 162.835 161.991 160.575 160.162 159.197C159.655 159.398 158.659 159.809 158.162 160.01C158.257 160.681 158.449 162.002 158.554 162.672C154.868 162.71 151.182 162.758 147.506 162.624C147.669 153.912 147.583 145.201 147.535 136.498ZM151.718 141.706C151.699 142.271 151.671 143.391 151.651 143.956C155.203 144.167 158.774 144.167 162.336 144.004C162.594 143.506 163.102 142.501 163.35 142.003C159.54 141.113 155.586 141.563 151.718 141.706ZM166.27 141.831C166.156 142.309 165.926 143.276 165.811 143.755C169.554 144.234 173.345 144.186 177.108 144.013C177.146 143.42 177.223 142.242 177.261 141.649C173.604 141.687 169.88 141.18 166.27 141.831ZM180.669 141.611C180.756 142.194 180.909 143.362 180.995 143.946C186.567 144.147 192.158 144.205 197.73 143.937C197.778 143.372 197.873 142.223 197.921 141.649C192.177 141.524 186.423 141.543 180.669 141.611ZM151.757 148.341C151.766 148.915 151.785 150.073 151.785 150.657C162.058 150.686 172.359 150.897 182.622 150.571C182.651 150.016 182.699 148.915 182.728 148.369C172.417 148.092 162.077 148.168 151.757 148.341ZM152.752 157.148C160.536 157.158 168.338 157.033 176.131 157.148C176.131 156.621 176.141 155.568 176.151 155.042C168.396 154.448 160.574 154.937 152.8 154.783C151.192 154.266 150.847 157.943 152.752 157.148Z" fill="#C7FAFD"/>
<path d="M124.443 140.5C130.436 137.465 138.373 142.003 138.823 148.695C139.723 154.803 133.988 160.805 127.803 159.838C121.829 159.675 117.368 153.29 118.775 147.584C119.436 144.492 121.647 141.907 124.443 140.5ZM126.329 142.463C123.668 143.305 121.523 145.765 121.159 148.561C120.211 153.031 124.319 157.588 128.809 157.521C132.849 157.435 136.736 153.749 136.314 149.585C136.554 144.597 130.953 140.806 126.329 142.463Z" fill="#195A6B"/>
<path d="M126.329 142.463C130.953 140.806 136.554 144.597 136.314 149.585C136.736 153.749 132.849 157.435 128.809 157.521C124.319 157.588 120.211 153.031 121.159 148.561C121.523 145.765 123.668 143.305 126.329 142.463ZM126.205 145.047C122.796 146.541 122.375 151.768 125.352 153.922C128.541 157.004 134.515 153.97 134.093 149.595C134.199 145.737 129.498 142.97 126.205 145.047Z" fill="#F0FFFF"/>
<path d="M151.718 141.706C155.586 141.563 159.54 141.113 163.35 142.003C163.102 142.501 162.594 143.506 162.336 144.004C158.774 144.167 155.203 144.167 151.651 143.956C151.671 143.391 151.699 142.271 151.718 141.706Z" fill="#265C66"/>
<path d="M166.27 141.831C169.88 141.18 173.604 141.687 177.261 141.649C177.223 142.242 177.146 143.42 177.108 144.013C173.345 144.186 169.554 144.234 165.811 143.755C165.926 143.276 166.156 142.309 166.27 141.831Z" fill="#1E5A65"/>
<path d="M180.669 141.611C186.423 141.544 192.177 141.524 197.921 141.649C197.873 142.223 197.778 143.372 197.73 143.937C192.158 144.205 186.567 144.147 180.995 143.946C180.909 143.362 180.756 142.194 180.669 141.611Z" fill="#1D5964"/>
<path d="M126.204 145.047C129.498 142.97 134.199 145.737 134.093 149.595C134.514 153.97 128.54 157.004 125.352 153.922C122.375 151.768 122.796 146.541 126.204 145.047ZM126.463 148.034C124.261 150.294 128.11 154.247 130.331 151.998C132.054 150.877 131.48 148.848 130.771 147.316C129.278 147.058 127.507 146.541 126.463 148.034Z" fill="#1F5F68"/>
<path d="M126.463 148.034C127.507 146.541 129.278 147.058 130.771 147.316C131.48 148.848 132.054 150.877 130.331 151.998C128.11 154.247 124.261 150.294 126.463 148.034Z" fill="#CCF2FF"/>
<path d="M152.752 157.148C150.847 157.943 151.192 154.266 152.8 154.783C160.574 154.937 168.396 154.448 176.151 155.042C176.141 155.568 176.131 156.621 176.131 157.148C168.338 157.033 160.536 157.158 152.752 157.148Z" fill="#12576B"/>
<path d="M14.2783 156.172C34.8522 156.085 55.4644 155.836 76.0383 156.334C79.3508 157.33 82.625 158.469 86.0619 158.996C85.9087 161.159 85.7077 163.313 85.4588 165.467C62.5393 165.592 39.6007 165.553 16.6717 165.506C16.1451 165.486 15.0729 165.458 14.5367 165.448C14.2495 162.365 14.0198 159.264 14.2783 156.172ZM47.2023 160.058C45.8141 159.924 46.1108 161.542 46.0055 162.394C48.8872 162.519 51.7689 162.49 54.6506 162.413C54.6889 161.849 54.7751 160.728 54.8133 160.164C52.2859 159.963 49.7297 159.733 47.2023 160.058Z" fill="#C6FBFD"/>
<path d="M47.2022 160.058C49.7297 159.733 52.2858 159.963 54.8133 160.164C54.775 160.728 54.6888 161.849 54.6506 162.413C51.7689 162.49 48.8872 162.519 46.0055 162.394C46.1108 161.542 45.814 159.924 47.2022 160.058Z" fill="#1D5F70"/>
<path d="M160.967 162.586C164.356 166.578 169.028 169.115 172.896 172.58C172.11 172.839 170.54 173.346 169.755 173.595C168.243 174.323 166.778 175.136 165.323 175.979C164.155 176.668 163.025 177.405 161.886 178.133C161.627 172.944 161.196 167.774 160.967 162.586Z" fill="#FBFBFD"/>
<path d="M167.63 165.218C179.932 165.314 192.254 165.419 204.556 165.19L205.446 165.161C205.389 165.735 205.274 166.903 205.216 167.487C203.895 167.755 202.584 168.033 201.272 168.301C201.014 168.76 200.497 169.68 200.228 170.139L199.826 170.11C191.153 169.622 182.45 170.072 173.767 169.861C171.728 168.301 169.688 166.75 167.63 165.218Z" fill="#F4FFFF"/>
<path d="M124.376 167.066C129.163 164.654 135.194 166.913 137.808 171.441C139.349 173.834 138.976 176.773 138.583 179.435C138.248 176.955 138.488 173.844 135.845 172.532C133.528 170.225 130.532 167.631 126.99 168.732C122.777 169.613 120.546 174.055 120.939 178.085C120.47 177.989 119.541 177.798 119.072 177.702L118.383 177.405C118.44 173.231 120.336 168.789 124.376 167.066Z" fill="#145E67"/>
<path d="M120.939 178.085C120.546 174.055 122.777 169.612 126.99 168.732C130.532 167.631 133.528 170.225 135.845 172.532C136.219 175.002 136.87 177.788 135.376 180.038C133.653 183.159 129.651 184.719 126.272 183.532C123.677 182.757 122.193 180.296 120.939 178.085Z" fill="#FBFDFE"/>
<path d="M135.845 172.532C138.488 173.844 138.248 176.955 138.583 179.435C137.195 183.159 133.844 186.098 129.804 186.404C124.768 187.151 119.398 183.322 118.861 178.2L119.072 177.702C119.541 177.798 120.47 177.989 120.939 178.085C122.193 180.296 123.677 182.757 126.271 183.532C129.651 184.719 133.653 183.159 135.376 180.038C136.87 177.788 136.219 175.002 135.845 172.532Z" fill="#2A495D"/>
<path d="M170.962 176.055C173.039 175.146 175.088 174.074 176.553 172.274C183.465 172.274 190.387 172.398 197.299 172.216C197.28 175.72 197.27 179.234 197.28 182.738C189.697 182.517 182.096 182.661 174.513 182.642C173.326 180.44 172.149 178.248 170.962 176.055Z" fill="#C4FCFC"/>
<path d="M42.7888 183.877C45.6513 184.135 47.7288 186.806 50.2946 188.022C51.8455 188.893 55.3878 190.779 52.2859 192.215C48.8298 190.396 45.4694 188.328 42.4154 185.887C42.5016 185.38 42.693 184.375 42.7888 183.877Z" fill="#35545E"/>
<path d="M60.2321 196.169C58.662 195.671 60.5384 193.402 61.5915 194.206C65.0381 195.518 68.408 197.002 71.8833 198.246C71.8737 198.744 71.8737 199.74 71.8737 200.238C67.7091 200.027 63.8509 198.055 60.2321 196.169Z" fill="#235557"/>
<path d="M119.541 201.788C123.648 200.764 127.765 199.749 131.949 199.089C131.901 199.663 131.805 200.802 131.748 201.367C127.822 202.65 123.763 203.732 119.608 203.933C119.599 203.397 119.56 202.325 119.541 201.788Z" fill="#2F535F"/>
<path d="M79.1306 202.717C79.2454 202.143 79.4848 200.984 79.5997 200.41C83.1994 201.3 86.8757 201.721 90.5137 202.411C92.3327 201.817 91.9881 205.388 90.4276 204.766C86.6076 204.507 82.8164 203.751 79.1306 202.717Z" fill="#234855"/>
<path d="M99.6853 203.014C103.754 202.889 107.833 203.023 111.911 202.755C111.873 203.378 111.806 204.622 111.777 205.244C107.718 205.57 103.63 205.675 99.5704 205.484C99.5992 204.871 99.6566 203.636 99.6853 203.014Z" fill="#2B535B"/>
</svg>
