<svg width="188" height="197" viewBox="0 0 188 197" fill="none" xmlns="http://www.w3.org/2000/svg">
<path d="M90.709 8.18822C90.7943 5.41505 89.9332 1.12923 93.4799 0.320749C100.036 0.0164823 106.627 0.103417 113.183 0.251204C117.079 1.3031 115.647 6.44086 115.928 9.48352C118.469 9.45744 121.01 9.46614 123.559 9.58784C125.409 12.1698 124.914 15.4298 124.906 18.429C127.847 18.7245 132.835 17.2206 133.696 21.3152C134.062 27.1918 133.721 33.1033 133.875 38.9974C133.065 39.8493 132.264 40.7013 131.454 41.5445C131.445 34.6855 131.522 27.8352 131.385 20.9761C124.684 20.8196 117.983 20.8892 111.29 20.924C110.915 23.6624 112.117 28.8436 108.11 28.9392C97.5808 29.1305 87.0344 28.8262 76.5051 28.9914C74.7573 28.8784 72.4298 29.7651 72.6344 31.9123C72.4298 41.1273 72.677 50.3422 72.5492 59.5571C71.7818 59.2442 71.0145 58.9312 70.2557 58.6182C70.0596 50.8377 70.2387 43.0485 70.1279 35.2593C70.162 32.7469 69.9232 29.8085 71.8842 27.9221C73.3421 26.4616 75.5247 26.7659 77.3833 26.6702C87.7847 26.7311 98.1776 26.705 108.57 26.6789C109.056 24.1144 107.931 20.2633 110.719 18.8462C114.658 18.0465 118.725 18.6028 122.723 18.4637C122.621 16.2904 122.519 14.1084 122.391 11.935C115.792 11.7264 109.159 11.7525 102.585 12.135C102.219 14.2301 102.321 16.3947 101.793 18.4637C100.983 20.3763 98.5783 19.8808 96.9584 20.0546C87.5801 19.9938 78.2017 20.0285 68.8234 20.0025C67.2632 20.0981 65.4728 19.8547 64.1939 20.9848C63.4096 23.6537 63.6568 26.4877 63.6142 29.2348C63.7506 38.2063 63.4948 47.1778 63.7165 56.1493C62.8554 54.0021 62.0795 51.8288 61.4827 49.5946C61.1247 41.9357 61.4486 34.2595 61.3037 26.592C61.406 24.3491 61.0138 21.8715 62.1904 19.8547C63.4351 17.9074 65.8564 17.4553 67.9794 17.5509C78.5769 17.577 89.1659 17.5509 99.7634 17.577C100.147 15.0646 98.9534 11.1961 101.784 9.83126C105.629 9.03147 109.611 9.61392 113.507 9.46614C113.473 7.19718 113.447 4.93691 113.422 2.66795C106.712 2.62448 100.002 2.4767 93.3008 2.78966C92.8916 5.31942 94.2643 9.86603 90.8284 10.5789C80.0859 10.9353 69.3264 10.5789 58.5754 10.7093C56.8532 10.5615 54.611 11.5438 54.7048 13.5868C54.5172 22.0889 54.7303 30.5909 54.6536 39.1017C53.8778 39.2495 53.1019 39.406 52.3346 39.5798L52.1215 39.632C52.3005 30.9821 52.1129 22.3236 52.2323 13.665C52.147 10.2225 55.438 7.8144 58.6437 8.19691C69.335 8.2056 80.0177 8.22299 90.709 8.18822Z" fill="#215964"/>
<path d="M93.3008 2.78966C100.002 2.4767 106.712 2.62449 113.422 2.66795C113.447 4.93691 113.473 7.19718 113.507 9.46614C109.611 9.61393 105.629 9.03148 101.784 9.83126C98.9534 11.1961 100.147 15.0646 99.7634 17.577C89.1659 17.5509 78.5769 17.577 67.9794 17.5509C65.8564 17.4553 63.4351 17.9074 62.1904 19.8547C61.0138 21.8715 61.406 24.3491 61.3037 26.592C61.4486 34.2595 61.1247 41.9357 61.4827 49.5946C59.3257 49.2295 56.1115 50.1944 54.9435 47.6994C54.3893 44.8741 54.7303 41.9618 54.6536 39.1017C54.7303 30.5909 54.5172 22.0889 54.7048 13.5868C54.611 11.5438 56.8533 10.5615 58.5755 10.7093C69.3264 10.5789 80.0859 10.9353 90.8284 10.5789C94.2643 9.86604 92.8916 5.31942 93.3008 2.78966Z" fill="#FCFEFE"/>
<path d="M102.585 12.135C109.159 11.7525 115.792 11.7264 122.391 11.935C122.519 14.1084 122.621 16.2904 122.723 18.4637C118.725 18.6028 114.658 18.0464 110.719 18.8462C107.931 20.2632 109.057 24.1144 108.571 26.6789C98.1777 26.705 87.7848 26.7311 77.3834 26.6702C75.5247 26.7659 73.3421 26.4616 71.8842 27.9221C69.9233 29.8085 70.162 32.7469 70.1279 35.2592C70.2388 43.0485 70.0597 50.8377 70.2558 58.6182C67.8686 58.4878 64.3304 59.4006 63.7166 56.1493C63.4949 47.1778 63.7507 38.2063 63.6143 29.2348C63.6569 26.4877 63.4096 23.6537 64.194 20.9848C65.4729 19.8547 67.2633 20.0981 68.8235 20.0024C78.2018 20.0285 87.5802 19.9938 96.9585 20.0546C98.5784 19.8807 100.983 20.3763 101.793 18.4637C102.321 16.3947 102.219 14.2301 102.585 12.135Z" fill="#C6FCFE"/>
<path d="M141.676 16.4469C145.99 17.5075 149.528 20.5849 152.666 23.6623C152.188 24.0101 151.225 24.7142 150.747 25.062C148.062 22.7321 144.941 20.9674 142.273 18.6376C142.119 18.0899 141.821 16.9945 141.676 16.4469Z" fill="#3C5E64"/>
<path d="M30.1677 26.366C32.6401 23.5493 35.752 21.3412 38.8725 19.3157C39.3669 19.6112 40.3474 20.2024 40.8419 20.498C37.7215 23.2538 34.3538 25.6966 31.0884 28.2698C30.8583 27.7917 30.3979 26.8441 30.1677 26.366Z" fill="#204E5C"/>
<path d="M111.29 20.924C117.983 20.8892 124.684 20.8196 131.385 20.9761C131.522 27.8352 131.445 34.6855 131.454 41.5445C131.437 48.4557 131.471 55.3669 131.488 62.2781C131.402 64.0255 131.616 66.1641 130.072 67.3637C128.734 67.7028 127.353 67.6941 125.989 67.7202C109.764 67.6506 93.5396 67.6854 77.3151 67.7028C75.8742 67.6332 74.2714 67.7115 73.0863 66.7204C72.3361 64.4167 72.6089 61.9391 72.5492 59.5571C72.6771 50.3422 72.4298 41.1273 72.6345 31.9123C72.4298 29.7651 74.7574 28.8784 76.5052 28.9914C87.0345 28.8262 97.5808 29.1305 108.11 28.9392C112.117 28.8436 110.915 23.6624 111.29 20.924ZM99.0387 35.0072C93.4885 36.2851 88.6714 41.4924 88.5691 47.4299C87.6398 54.6193 93.3435 61.5914 100.343 62.2781C108.221 63.4865 115.962 56.4362 115.553 48.2993C115.672 39.8146 107.096 32.9729 99.0387 35.0072Z" fill="#C6FBFD"/>
<path d="M157.517 30.8778C156.46 30.1302 156.929 28.2003 158.395 28.6697C161.268 30.8778 163.442 33.8683 165.932 36.4937C165.753 37.0588 165.403 38.1889 165.224 38.754C162.394 36.4155 160.041 33.5467 157.517 30.8778Z" fill="#184552"/>
<path d="M24.0121 32.2079C24.5236 32.2601 25.5553 32.3818 26.0668 32.4426C24.967 35.1897 22.6735 37.1109 20.9684 39.4408C19.9027 40.5187 19.016 42.7616 17.1744 41.7445C17.848 37.7716 21.7101 35.2853 24.0121 32.2079Z" fill="#184552"/>
<path d="M99.0387 35.0071C107.096 32.9729 115.672 39.8146 115.553 48.2993C115.962 56.4362 108.221 63.4865 100.343 62.2781C93.3435 61.5914 87.6398 54.6193 88.5691 47.4299C88.6714 41.4924 93.4885 36.2851 99.0387 35.0071ZM98.9876 37.5369C93.5567 39.0843 89.6178 45.2392 91.0075 50.942C92.0561 56.0885 96.9329 59.9831 102.065 59.957C108.05 59.9918 113.481 54.4715 113.089 48.3079C113.362 41.1186 105.646 35.4679 98.9876 37.5369Z" fill="#225762"/>
<path d="M98.9876 37.5369C105.646 35.4679 113.362 41.1186 113.089 48.308C113.481 54.4715 108.05 59.9918 102.065 59.957C96.9328 59.9831 92.0561 56.0885 91.0074 50.942C89.6177 45.2392 93.5566 39.0843 98.9876 37.5369ZM99.2092 42.5964C99.0984 43.2658 98.8767 44.6133 98.7659 45.2827C97.811 45.3696 96.8646 45.4652 95.9183 45.5696C96.1144 47.4473 95.4835 49.6293 96.3872 51.3159C96.9925 51.481 98.1861 51.8114 98.7829 51.9765C98.9534 52.8893 99.124 53.8021 99.303 54.7149C101.153 54.6976 103.012 54.6715 104.87 54.6106C104.913 53.9499 104.99 52.6112 105.032 51.9418C105.953 51.7766 106.865 51.5767 107.786 51.3506C108.136 49.3772 107.897 47.3691 107.769 45.387C107.053 45.3609 105.621 45.3175 104.904 45.2914C104.956 44.6307 105.066 43.3093 105.118 42.6486C103.157 42.4487 101.145 42.127 99.2092 42.5964Z" fill="#F8FCFF"/>
<path d="M52.3346 39.5798C53.102 39.406 53.8778 39.2495 54.6537 39.1017C54.7304 41.9618 54.3894 44.8741 54.9435 47.6994C56.1116 50.1944 59.3258 49.2294 61.4828 49.5946C62.0796 51.8287 62.8554 54.0021 63.7165 56.1493C64.3304 59.4006 67.8686 58.4878 70.2558 58.6182C71.0146 58.9312 71.7819 59.2442 72.5492 59.5571C72.6089 61.9391 72.3361 64.4167 73.0863 66.7204C74.2714 67.7115 75.8742 67.6332 77.3151 67.7028C93.5396 67.6854 109.764 67.6506 125.989 67.7202C127.353 67.6941 128.734 67.7028 130.072 67.3637C131.616 66.164 131.402 64.0255 131.488 62.2781C131.471 55.3669 131.437 48.4557 131.454 41.5445C132.264 40.7013 133.065 39.8493 133.875 38.9974C133.662 46.7518 133.824 54.5063 133.815 62.2607C133.679 64.2515 133.875 66.5118 132.605 68.1722C131.428 69.6588 129.467 70.0413 127.702 70.0674C110.634 69.8326 93.5652 70.0065 76.5052 69.9717C74.9109 69.8935 73.0778 69.8761 71.8927 68.6069C69.9062 66.677 70.3325 63.6256 70.0341 61.1045C67.6469 60.8959 64.7822 61.4696 62.9236 59.5397C60.9116 57.5229 61.551 54.3672 61.2611 51.7853C58.5414 51.5592 54.9435 52.3503 53.2213 49.5598C51.627 46.5084 52.3943 42.8833 52.3346 39.5798Z" fill="#145F6A"/>
<path d="M45.5822 43.8656C47.5517 42.1704 49.5296 40.2405 52.1215 39.632L52.3346 39.5798C52.3943 42.8833 51.627 46.5084 53.2213 49.5598C54.9435 52.3503 58.5414 51.5592 61.2611 51.7853C61.5509 54.3672 60.9115 57.5229 62.9236 59.5397C64.7822 61.4696 67.6469 60.8959 70.0341 61.1045C70.3325 63.6256 69.9062 66.677 71.8927 68.6069C73.0778 69.8761 74.9108 69.8935 76.5051 69.9717C93.5652 70.0065 110.634 69.8326 127.702 70.0674C129.467 70.0413 131.428 69.6588 132.605 68.1722C133.875 66.5118 133.679 64.2515 133.815 62.2607C133.824 54.5063 133.662 46.7518 133.875 38.9974C137.916 41.2055 141.19 44.5176 144.37 47.8211C150.082 53.6022 154.857 60.4351 158.054 67.981C159.29 72.9796 161.208 77.9609 160.757 83.2204C154.891 83.2464 149.025 83.2725 143.168 83.2291C142.912 82.6901 142.409 81.6208 142.162 81.0818C139.817 81.1079 137.473 81.1166 135.137 81.1079C133.602 79.3518 131.931 77.1872 129.365 77.2915C127.293 76.9264 125.724 78.439 124.3 79.7083C122.118 81.9772 118.656 80.7775 115.903 81.4382C115.86 82.2902 116.372 83.3421 115.664 84.0375L115.118 83.5942C113.703 82.9248 112.143 83.1421 110.651 83.1943C105.51 83.4377 100.369 83.0639 95.2362 83.2551C93.9659 83.3508 92.3119 83.2638 91.6895 84.6722C91.374 85.8544 91.3911 87.0976 91.3485 88.3147C91.3655 116.299 91.4081 144.282 91.3314 172.266C85.0138 172.327 78.628 171.371 72.66 169.232C72.9072 165.259 72.8646 161.269 72.9073 157.288C75.9083 155.879 79.2589 153.767 79.5062 150.02C79.7961 146.064 80.5975 141.387 77.5623 138.267C75.7634 138.267 73.973 138.223 72.1826 138.162C73.9815 136.319 76.1982 134.989 77.9971 133.164C80.0518 130.599 79.6767 127.043 79.7705 123.957C79.6682 122.01 79.8301 119.367 77.8181 118.341C76.0191 117.742 74.1094 117.611 72.2593 117.272C74.7062 115.099 78.3723 113.743 79.2163 110.213C79.9666 106.858 79.9495 103.311 79.438 99.929C78.8241 96.8515 75.0984 97.3992 72.822 96.9819C72.8561 96.4603 72.9328 95.4258 72.9669 94.9129C75.5076 94.0349 78.6877 92.9569 79.3442 89.9142C79.9069 86.4282 80.0518 82.7422 79.2333 79.2823C78.3467 76.7525 75.2774 76.6743 73.0692 76.6482C56.7083 76.57 40.3474 76.7438 23.995 76.5526C25.2653 76.1962 26.5612 75.9527 27.8827 75.831C42.6749 75.5876 57.4756 76.0049 72.2678 75.6659C56.4355 75.6137 40.5946 75.605 24.7538 75.6311C29.0934 63.5647 35.8799 52.2112 45.5822 43.8656Z" fill="#70EAED"/>
<path d="M99.2092 42.5964C101.145 42.127 103.157 42.4486 105.118 42.6486C105.066 43.3093 104.956 44.6307 104.904 45.2914C105.621 45.3174 107.053 45.3609 107.769 45.387C107.897 47.3691 108.136 49.3772 107.786 51.3506C106.865 51.5766 105.953 51.7766 105.032 51.9418C104.99 52.6111 104.913 53.9499 104.87 54.6106C103.012 54.6715 101.153 54.6975 99.303 54.7149C99.124 53.8021 98.9535 52.8893 98.783 51.9765C98.1862 51.8114 96.9926 51.481 96.3872 51.3158C95.4835 49.6293 96.1144 47.4473 95.9183 45.5695C96.8647 45.4652 97.811 45.3696 98.7659 45.2827C98.8767 44.6133 99.0984 43.2658 99.2092 42.5964ZM101.409 44.7958C101.341 45.5087 101.213 46.9344 101.153 47.6559C99.9936 47.8037 98.8341 47.9776 97.6832 48.1689C98.7574 48.7687 99.8998 49.2381 101.059 49.6815C101.332 50.7595 101.614 51.8461 101.903 52.9241C102.347 51.794 102.756 50.6378 103.182 49.4989C103.958 49.2816 105.51 48.8469 106.286 48.6296C105.169 48.1862 104.018 47.8298 102.875 47.4821C102.79 46.8127 102.637 45.4739 102.551 44.8132C102.27 44.8045 101.69 44.7958 101.409 44.7958Z" fill="#24626B"/>
<path d="M168.967 44.4916C169.683 44.2569 170.544 42.8485 171.218 43.883C173.741 46.8475 175.532 50.3857 177.254 53.8804C176.666 53.9412 175.481 54.0542 174.884 54.1064C172.829 50.9594 171.022 47.6386 168.967 44.4916Z" fill="#29545D"/>
<path d="M131.044 111.769C132.033 110.987 133.133 110.265 134.455 110.474C140.355 110.483 146.254 110.457 152.163 110.535C152.086 111.352 152.009 112.178 151.941 113.004C146.399 112.926 140.866 112.969 135.333 112.978C133.79 113.108 132.298 112.682 131.044 111.769Z" fill="#29545D"/>
<path d="M101.409 44.7958C101.69 44.7958 102.27 44.8045 102.551 44.8132C102.637 45.4739 102.79 46.8127 102.875 47.4821C104.018 47.8298 105.169 48.1862 106.286 48.6296C105.51 48.8469 103.958 49.2816 103.182 49.4989C102.756 50.6378 102.347 51.794 101.903 52.9241C101.613 51.8461 101.332 50.7595 101.059 49.6815C99.8998 49.2381 98.7574 48.7687 97.6831 48.1688C98.8341 47.9776 99.9936 47.8037 101.153 47.6559C101.213 46.9344 101.341 45.5087 101.409 44.7958Z" fill="#DDFFFF"/>
<path d="M12.1272 47.9776C13.065 46.9692 13.7641 47.1865 14.216 48.6122C12.707 52.0722 10.7546 55.3408 8.88741 58.6095C8.43555 58.4965 7.53182 58.2792 7.07996 58.1662C7.8558 54.4194 9.96166 51.0463 12.1272 47.9776Z" fill="#305C62"/>
<path d="M178.132 61.0176C178.712 60.9481 179.854 60.809 180.426 60.7394C182.148 64.0081 183.265 67.5811 184.211 71.154C184.023 72.4667 183.128 72.6232 182.148 72.006C180.698 68.3895 179.59 64.634 178.132 61.0176Z" fill="#2B5E65"/>
<path d="M158.054 67.981C161.456 72.5623 161.413 78.7694 164.764 83.3769C163.425 83.2725 162.095 83.2291 160.757 83.2204C161.208 77.9609 159.29 72.9796 158.054 67.981Z" fill="#A0E1E6"/>
<path d="M1.15456 76.7438C8.75953 76.3787 16.3816 76.7004 23.9951 76.5526C40.3475 76.7438 56.7084 76.57 73.0693 76.6482C75.2775 76.6743 78.3467 76.7525 79.2334 79.2823C80.0519 82.7422 79.907 86.4282 79.3443 89.9142C78.6878 92.9569 75.5077 94.0349 72.967 94.9129C72.9329 95.4258 72.8562 96.4603 72.8221 96.9819C75.0984 97.3992 78.8242 96.8515 79.438 99.929C79.9496 103.311 79.9666 106.858 79.2164 110.213C78.3723 113.743 74.7062 115.099 72.2594 117.272C74.1094 117.611 76.0192 117.742 77.8181 118.341C79.8302 119.367 79.6682 122.01 79.7705 123.957C79.6768 127.043 80.0519 130.599 77.9972 133.164C76.1983 134.989 73.9816 136.319 72.1826 138.162C73.973 138.223 75.7634 138.267 77.5624 138.267C80.5975 141.387 79.7961 146.064 79.5062 150.02C79.259 153.767 75.9084 155.879 72.9073 157.288C72.8647 161.269 72.9073 165.259 72.6601 169.232L72.6345 169.693C49.4871 170.075 26.3226 169.754 3.16664 169.867C0.711219 170.397 0.455441 167.433 0.523647 165.685C0.49807 137.867 0.523644 110.048 0.506592 82.2293C0.498066 80.3776 0.78795 78.552 1.15456 76.7438ZM2.91938 79.0736C3.00464 108.596 2.96201 138.119 2.9279 167.641C25.5212 167.58 48.1059 167.624 70.6991 167.615C70.6309 143.474 70.6906 119.332 70.6565 95.1911C69.9062 90.7314 76.5393 92.9743 77.119 89.1318C77.4089 85.9762 77.2384 82.8031 77.1275 79.6474C75.8146 79.3518 74.4931 79.0997 73.146 79.091C49.7343 79.091 26.3226 79.0997 2.91938 79.0736ZM72.9158 99.303C72.9244 104.137 72.9158 108.97 72.9158 113.795C74.4931 112.508 76.8036 111.448 77.0935 109.153C77.5539 106.127 77.6135 102.998 76.9911 99.9898C75.6526 99.6508 74.2714 99.503 72.9158 99.303ZM72.8988 120.071C72.9414 124.861 72.8561 129.643 72.9158 134.433C74.4419 133.155 76.5648 132.103 77.0423 129.964C77.7243 126.765 77.4771 123.462 77.0594 120.254C75.6697 120.193 74.2885 120.132 72.8988 120.071ZM72.9158 140.588C72.9073 145.395 72.8903 150.211 72.9158 155.027C74.2885 153.802 75.9595 152.767 76.8547 151.089C77.8864 147.821 77.4259 144.308 77.2299 140.944C75.789 140.805 74.3482 140.692 72.9158 140.588Z" fill="#1B5766"/>
<path d="M124.301 79.7083C125.724 78.439 127.293 76.9264 129.365 77.2915C131.931 77.1872 133.602 79.3518 135.137 81.1079C137.473 81.1166 139.817 81.1079 142.162 81.0818C142.409 81.6208 142.912 82.6901 143.168 83.2291C149.025 83.2725 154.891 83.2464 160.757 83.2204C162.095 83.2291 163.425 83.2725 164.764 83.3769C166.298 83.3073 167.074 85.1851 167.015 86.5064C167.057 116.968 167.015 147.438 167.04 177.899C167.245 179.551 166.298 181.655 164.406 181.516C141.037 181.594 117.659 181.507 94.2813 181.559C92.8831 181.89 91.8174 180.812 91.4252 179.569C91.1695 177.3 91.3144 175.013 91.3229 172.736C91.9368 172.683 93.156 172.579 93.7698 172.527C93.7613 174.744 93.7528 176.961 93.7442 179.186C117.378 179.082 141.011 179.195 164.653 179.125C164.499 147.934 164.636 116.733 164.585 85.5415C157.73 85.585 150.884 85.611 144.029 85.5328C144.49 86.6542 144.941 87.7757 145.402 88.9058C150.688 88.8884 155.974 88.8971 161.26 88.9232C161.439 111.326 161.294 133.72 161.345 156.123C161.277 162.712 161.507 169.31 161.174 175.9C139.8 175.787 118.418 175.935 97.0352 175.822C96.7112 146.882 96.8135 117.915 96.984 88.9667C102.185 88.8363 107.394 88.9232 112.595 88.8971C113.26 87.9495 113.933 87.0107 114.615 86.0718C115.067 85.4546 115.425 84.7678 115.664 84.0375C116.372 83.3421 115.86 82.2902 115.903 81.4382C118.656 80.7775 122.118 81.9772 124.301 79.7083ZM125.272 82.2467C126.082 83.0639 126.713 84.1766 127.796 84.6722C129.527 85.8197 131.13 84.0375 132.673 83.3769C132.494 81.586 131.437 79.7517 129.484 79.6648C127.566 79.1693 126.432 81.0905 125.272 82.2467ZM117.71 83.4464C116.517 86.2891 115.348 89.1492 114.129 91.9832C124.13 92.0354 134.131 91.8876 144.123 92.0441C142.912 89.2448 141.804 86.4021 140.704 83.5507C138.786 83.4986 136.859 83.4812 134.949 83.4725C133.73 85.4372 131.982 87.454 129.476 87.2367C126.764 87.7322 124.659 85.7154 123.346 83.5768C121.461 83.5159 119.586 83.4899 117.71 83.4464ZM99.303 91.3747C99.3286 118.698 99.303 146.021 99.3116 173.344C119.194 173.353 139.067 173.388 158.949 173.335C158.966 146.012 158.932 118.689 158.958 91.366C154.763 91.3747 150.568 91.4008 146.374 91.2965C146.612 91.9659 147.09 93.3133 147.329 93.9827C145.879 94.2087 144.43 94.4522 142.972 94.4261C135.896 94.174 128.819 94.3391 121.743 94.2957C118.119 94.2174 114.428 94.939 110.881 93.9132C111.256 93.0525 111.648 92.1919 112.032 91.3312C107.786 91.3921 103.549 91.3747 99.303 91.3747Z" fill="#1A5C6A"/>
<path d="M2.91931 79.0737C26.3225 79.0997 49.7342 79.0911 73.146 79.0911C74.493 79.0998 75.8145 79.3519 77.1275 79.6474C77.2383 82.8031 77.4088 85.9762 77.119 89.1319C76.5392 92.9743 69.9062 90.7314 70.6564 95.1911C70.6905 119.333 70.6309 143.474 70.6991 167.615C48.1058 167.624 25.5211 167.581 2.92783 167.641C2.96194 138.119 3.00457 108.596 2.91931 79.0737ZM17.9843 89.7056C13.3463 91.3747 9.72286 95.6779 8.76798 100.59C7.25892 107.718 11.7008 115.481 18.6152 117.455C25.6831 119.941 33.9531 115.56 36.3488 108.422C38.6934 102.128 36.0333 94.5913 30.4575 91.0705C26.817 88.6798 22.0511 88.2799 17.9843 89.7056ZM41.0976 93.409C49.3591 93.2699 57.6547 93.6437 65.9076 93.2264C66.044 92.7309 66.3339 91.7572 66.4788 91.2617C58.746 91.0357 51.0046 91.1748 43.2717 91.14C41.6007 90.7923 40.8163 91.7746 41.0976 93.409ZM41.2085 100.833C49.2738 100.903 57.3563 101.024 65.4216 100.79C67.6809 100.616 66.2401 98.1034 64.6799 98.4859C56.8788 98.4511 49.0692 98.5033 41.2596 98.4598C41.2426 99.2509 41.2255 100.042 41.2085 100.833ZM41.1403 105.31C41.1914 106.093 41.2426 106.875 41.3023 107.657C47.0657 107.701 52.8291 107.675 58.5925 107.623C61.4571 107.553 64.5349 108.205 67.1353 106.605C66.1122 105.919 65.1147 104.962 63.7847 105.188C56.2394 105.362 48.6856 105.058 41.1403 105.31ZM40.7907 114.847C49.163 115.125 57.5694 115.081 65.9417 114.89C67.7662 113.073 65.1232 112.778 63.7506 112.804C56.5975 112.821 49.4444 112.786 42.2998 112.812C41.1147 112.526 41.2852 114.203 40.7907 114.847ZM7.26745 122.297C18.1207 122.592 28.9825 122.323 39.8444 122.419C45.2071 122.314 50.5953 122.679 55.9495 122.175C59.2916 122.436 62.6763 122.653 66.0099 122.227C66.0952 121.775 66.2571 120.889 66.3424 120.437C63.563 119.385 60.5023 120.063 57.612 119.967C41.4728 119.898 25.325 119.854 9.18575 119.958C7.63406 119.532 7.68521 121.297 7.26745 122.297ZM7.41239 129.66C26.1946 130.008 44.9939 129.608 63.7762 129.808C65.1573 130.06 66.2486 129.252 67.0756 128.208C65.72 127.739 64.3388 127.27 62.8895 127.304C44.9428 127.391 26.9875 127.2 9.04933 127.391C7.5147 127.052 7.65964 128.626 7.41239 129.66ZM7.65963 134.711C7.63405 135.293 7.59143 136.467 7.57438 137.058C23.6795 137.041 39.8017 137.406 55.8898 136.867C59.6071 137.119 63.4863 137.623 67.0841 136.319C66.7261 135.963 66.0184 135.25 65.6603 134.894C61.3548 134.259 56.9556 134.989 52.6159 134.711C37.6277 134.641 22.6394 134.668 7.65963 134.711ZM7.67668 142.413C7.08841 143.691 7.93245 144.743 9.271 144.5C26.5698 144.587 43.8685 144.439 61.1673 144.561C62.9577 144.508 64.8419 144.752 66.53 143.969C66.4959 141.414 63.725 142.144 62.0454 142.005C54.0312 142.187 46.017 141.805 38.0113 142.231C29.8436 141.796 21.6504 142.187 13.4742 142.013C11.5474 142.092 9.51825 141.718 7.67668 142.413ZM7.65963 149.62C7.64258 150.176 7.60848 151.289 7.5829 151.846C25.1715 152.202 42.7687 151.837 60.3659 152.028C62.6422 151.967 65.2085 152.437 67.0927 150.759C65.8991 149.733 64.4071 149.429 62.898 149.542C44.4824 149.629 26.0753 149.507 7.65963 149.62ZM7.19924 157.879C7.42944 158.974 8.06887 159.461 9.13459 159.331C26.493 159.409 43.86 159.27 61.2184 159.374C63.1708 159.409 65.1317 159.261 67.0415 158.835C66.1975 157.757 65.2426 156.714 63.7591 157.062C46.1278 157.114 28.5051 157.088 10.8738 157.062C9.67171 157.235 8.06035 156.775 7.19924 157.879Z" fill="#FCFEFF"/>
<path d="M184.194 79.7778C184.885 79.2214 185.729 78.639 186.206 79.8039C187.391 83.4899 187.579 87.454 187.903 91.2965C187.11 91.2965 186.325 91.2878 185.532 91.2704C185.345 87.4105 184.441 83.6289 184.194 79.7778Z" fill="#2A555F"/>
<path d="M125.272 82.2467C126.432 81.0905 127.566 79.1693 129.484 79.6648C131.437 79.7517 132.494 81.586 132.673 83.3769C131.13 84.0376 129.527 85.8197 127.796 84.6722C126.713 84.1766 126.082 83.0639 125.272 82.2467Z" fill="#F1FDFA"/>
<path d="M91.6895 84.6722C92.3119 83.2638 93.9659 83.3508 95.2362 83.2551C100.369 83.0639 105.51 83.4377 110.651 83.1943C112.143 83.1421 113.703 82.9248 115.118 83.5942L115.664 84.0375C115.425 84.7678 115.067 85.4546 114.615 86.0718C107.718 85.0112 100.727 85.8718 93.7868 85.5154C93.7442 114.516 93.7783 143.526 93.7698 172.527C93.1559 172.579 91.9367 172.683 91.3229 172.736L91.3314 172.266C91.4081 144.282 91.3655 116.299 91.3485 88.3147C91.3911 87.0976 91.3741 85.8544 91.6895 84.6722Z" fill="#0F636B"/>
<path d="M117.71 83.4464C119.586 83.4899 121.462 83.516 123.346 83.5768C124.659 85.7154 126.765 87.7322 129.476 87.2367C131.982 87.454 133.73 85.4372 134.949 83.4725C136.859 83.4812 138.786 83.4986 140.704 83.5507C141.804 86.4022 142.912 89.2449 144.123 92.0441C134.131 91.8876 124.13 92.0354 114.129 91.9833C115.349 89.1492 116.517 86.2891 117.71 83.4464Z" fill="#C5FAFD"/>
<path d="M93.7869 85.5154C100.727 85.8719 107.718 85.0112 114.615 86.0718C113.933 87.0107 113.26 87.9496 112.595 88.8971C107.394 88.9232 102.185 88.8363 96.984 88.9667C96.8135 117.915 96.7112 146.882 97.0352 175.822C118.418 175.935 139.8 175.787 161.174 175.9C161.507 169.31 161.277 162.712 161.345 156.123C161.294 133.72 161.439 111.326 161.26 88.9232C155.974 88.8971 150.688 88.8884 145.402 88.9058C144.941 87.7757 144.49 86.6543 144.029 85.5328C150.884 85.6111 157.73 85.585 164.585 85.5415C164.636 116.733 164.499 147.934 164.653 179.125C141.011 179.195 117.378 179.082 93.7443 179.186C93.7528 176.961 93.7613 174.744 93.7698 172.527C93.7784 143.526 93.7443 114.516 93.7869 85.5154Z" fill="#CCFDFF"/>
<path d="M19.8345 96.4777C22.0426 95.1998 24.7197 95.8344 26.4846 97.5905C24.2167 97.6861 21.9489 97.3471 19.8345 96.4777Z" fill="#CCFDFF"/>
<path d="M114.59 108.196L115.843 108.066C115.877 108.701 115.937 109.978 115.971 110.613C117.096 111.022 118.23 111.448 119.356 111.874C118.281 112.143 117.233 112.465 116.201 112.856C116.005 113.621 115.63 115.16 115.442 115.925C115.033 114.864 114.641 113.786 114.24 112.726C113.226 112.404 112.228 112.074 111.248 111.665C112.399 111.3 113.567 110.952 114.743 110.622C114.701 110.013 114.624 108.805 114.59 108.196Z" fill="#CCFDFF"/>
<path d="M17.9844 89.7056C22.0512 88.2799 26.8171 88.6798 30.4576 91.0705C36.0334 94.5913 38.6934 102.128 36.3489 108.422C33.9531 115.56 25.6831 119.941 18.6153 117.455C11.7009 115.481 7.25897 107.718 8.76803 100.59C9.72291 95.6779 13.3464 91.3747 17.9844 89.7056ZM14.1734 95.2259C10.0384 99.39 10.098 106.258 13.2696 110.987C15.1879 110.5 17.1148 110.031 19.033 109.552C17.8053 107.275 15.9552 105.041 16.1428 102.276C16.4412 99.9724 15.5886 96.9385 17.7371 95.365C20.6529 91.8615 26.9876 92.9482 28.7268 97.121C29.946 101.476 28.9059 106.093 26.0924 109.57C28.1897 110.022 30.2956 110.465 32.3758 111.013C35.4707 106.466 35.6327 99.9029 31.8899 95.6779C27.6611 90.1316 18.692 89.9838 14.1734 95.2259ZM19.8345 96.4777C21.9488 97.347 24.2167 97.6861 26.4845 97.5905C24.7197 95.8344 22.0426 95.1998 19.8345 96.4777ZM20.2266 99.6769C19.6639 100.798 19.1013 101.92 18.5386 103.041C19.0927 104.354 19.6384 105.667 20.1584 106.988C21.3009 107.231 22.4178 107.753 23.6028 107.64C25.1886 106.727 25.8281 104.849 26.8 103.38C26.0668 102.285 25.3591 101.181 24.66 100.059C23.1851 99.929 21.7016 99.7986 20.2266 99.6769ZM21.2838 110.135C20.994 110.526 20.3972 111.3 20.1073 111.691C18.4874 112.169 16.8675 112.665 15.2647 113.195C19.9027 116.325 25.9133 116.281 30.5172 113.099C28.0021 112.534 25.2398 112.187 23.4494 110.091C22.9037 110.1 21.8295 110.126 21.2838 110.135Z" fill="#26616C"/>
<path d="M41.0977 93.409C40.8163 91.7746 41.6007 90.7923 43.2718 91.14C51.0046 91.1748 58.746 91.0357 66.4789 91.2617C66.3339 91.7573 66.0441 92.7309 65.9076 93.2264C57.6547 93.6437 49.3591 93.2699 41.0977 93.409Z" fill="#1C5463"/>
<path d="M99.303 91.3747C103.549 91.3747 107.786 91.3921 112.032 91.3313C111.648 92.1919 111.256 93.0525 110.881 93.9132C114.428 94.939 118.119 94.2174 121.743 94.2957C128.819 94.3392 135.896 94.174 142.972 94.4261C144.43 94.4522 145.879 94.2088 147.329 93.9827C147.09 93.3133 146.612 91.9659 146.374 91.2965C150.568 91.4008 154.763 91.3747 158.958 91.366C158.932 118.689 158.966 146.012 158.949 173.335C139.067 173.388 119.194 173.353 99.3115 173.344C99.303 146.021 99.3286 118.698 99.303 91.3747ZM110.966 99.2248C105.586 101.103 101.758 106.936 102.389 112.76C102.645 120.619 110.941 126.8 118.392 124.627C125.682 123.097 130.175 114.403 127.557 107.353C125.494 100.537 117.471 96.782 110.966 99.2248ZM132.067 101.85C130.959 103.085 132.306 104.145 133.577 104.084C139.681 104.215 145.794 104.032 151.898 104.145C152.001 103.319 152.111 102.502 152.214 101.685C145.504 101.737 138.76 101.372 132.067 101.85ZM131.044 111.769C132.298 112.682 133.79 113.108 135.333 112.978C140.866 112.969 146.399 112.925 151.941 113.004C152.009 112.178 152.086 111.352 152.163 110.535C146.254 110.457 140.354 110.483 134.455 110.474C133.133 110.265 132.033 110.987 131.044 111.769ZM131.982 119.393C132.033 119.984 132.127 121.167 132.17 121.758C138.811 121.784 145.453 121.819 152.086 121.741C152.06 120.932 152.035 120.115 152.001 119.306C145.325 119.385 138.658 119.28 131.982 119.393ZM107.581 130.46C122.391 130.808 137.234 130.53 152.052 130.564C152.103 130.043 152.197 129.008 152.239 128.487C138.087 127.695 123.874 128.391 109.696 128.148C108.281 127.913 105.544 128.93 107.581 130.46ZM108.161 137.249C106.797 136.858 106.593 139.953 108.076 139.362C122.885 139.423 137.703 139.597 152.504 139.266C152.478 136.25 149.23 137.336 147.269 137.136C134.233 137.258 121.189 137.032 108.161 137.249ZM107.581 146.117C105.527 147.56 108.298 148.759 109.713 148.446C123.874 148.333 138.035 148.681 152.188 148.247C152.18 147.699 152.163 146.603 152.154 146.056C137.302 145.908 122.425 145.821 107.581 146.117ZM106.865 154.914C106.985 155.471 107.232 156.583 107.36 157.14C121.521 157.54 135.716 157.175 149.886 157.322C151.617 157.809 152.231 156.462 152.649 155.019C137.396 154.688 122.126 154.862 106.865 154.914ZM106.746 163.773C106.797 167.085 110.233 166.007 112.356 166.19C125.69 165.99 139.05 166.494 152.384 165.92C152.273 165.364 152.06 164.26 151.95 163.703C136.885 163.782 121.811 163.625 106.746 163.773Z" fill="#FBFEFE"/>
<path d="M14.1733 95.2259C18.692 89.9838 27.6611 90.1316 31.8899 95.678C35.6327 99.9029 35.4707 106.466 32.3758 111.013C30.2956 110.465 28.1897 110.022 26.0924 109.57C28.9059 106.093 29.946 101.476 28.7268 97.121C26.9876 92.9482 20.6529 91.8616 17.7371 95.365C15.5886 96.9385 16.4412 99.9725 16.1428 102.276C15.9552 105.041 17.8053 107.275 19.033 109.553C17.1147 110.031 15.1879 110.5 13.2696 110.987C10.098 106.258 10.0384 99.39 14.1733 95.2259Z" fill="#C5F9FF"/>
<path d="M41.2086 100.833C41.2256 100.042 41.2427 99.2509 41.2597 98.4598C49.0693 98.5032 56.8789 98.4511 64.68 98.4859C66.2402 98.1034 67.681 100.616 65.4217 100.79C57.3563 101.024 49.2739 100.903 41.2086 100.833Z" fill="#285869"/>
<path d="M110.966 99.2248C117.471 96.782 125.494 100.538 127.557 107.353C130.175 114.403 125.682 123.097 118.392 124.627C110.941 126.8 102.645 120.619 102.389 112.76C101.758 106.936 105.586 101.103 110.966 99.2248ZM111.034 101.894C107.309 103.589 104.529 107.57 104.751 111.804C104.546 116.803 108.451 121.393 113.174 122.34C119.364 123.914 126.116 118.341 125.861 111.821C126.253 104.363 117.616 98.4337 111.034 101.894Z" fill="#245964"/>
<path d="M20.2266 99.6768C21.7016 99.7986 23.185 99.9289 24.66 100.059C25.3591 101.181 26.0667 102.285 26.8 103.38C25.828 104.849 25.1886 106.727 23.6028 107.64C22.4177 107.753 21.3009 107.231 20.1584 106.988C19.6383 105.667 19.0927 104.354 18.5385 103.041C19.1012 101.92 19.6639 100.798 20.2266 99.6768Z" fill="#F8FDFB"/>
<path d="M72.9158 99.303C74.2714 99.503 75.6525 99.6508 76.9911 99.9898C77.6135 102.998 77.5538 106.127 77.0934 109.153C76.8035 111.448 74.493 112.508 72.9158 113.795C72.9158 108.97 72.9243 104.137 72.9158 99.303Z" fill="#C6FBFF"/>
<path d="M173.963 105.893C174.816 104.789 175.216 102.363 177.058 102.728C178.763 102.633 179.027 104.676 179.59 105.884C177.714 105.919 175.839 105.919 173.963 105.893Z" fill="#C6FBFF"/>
<path d="M173.963 100.824C175.736 100.633 177.697 99.7464 179.334 100.903C181.184 101.72 181.432 103.937 181.977 105.658C183.597 106.24 184.995 107.257 185.993 108.701C185.788 116.924 185.993 125.148 185.848 133.364C185.26 133.355 184.092 133.329 183.503 133.32C183.367 125.218 183.554 117.107 183.401 109.005C182.975 108.814 182.122 108.422 181.696 108.222C181.585 114.621 181.756 121.019 181.662 127.417C180.894 136.102 181.346 144.839 181.261 153.541C181.508 157.983 179.829 162.173 178.737 166.39C178.524 167.763 177.024 167.763 176.035 168.128C174.645 164.234 173.341 160.252 172.795 156.131C172.411 146.603 173.204 137.023 172.309 127.513C172.292 119.941 172.241 112.352 172.318 104.78C172.232 103.25 173.281 102.076 173.963 100.824ZM173.963 105.893C175.839 105.919 177.714 105.919 179.59 105.884C179.027 104.676 178.763 102.633 177.058 102.728C175.216 102.363 174.816 104.789 173.963 105.893ZM174.73 128.035C176.231 128.035 177.74 128.052 179.249 128.069C179.198 121.436 179.334 114.803 179.164 108.179C177.697 108.17 176.231 108.153 174.773 108.135C174.347 114.751 174.33 121.41 174.73 128.035ZM175.097 130.46C175.165 139.466 175.105 148.464 175.114 157.47C176.316 157.522 177.51 157.574 178.72 157.627C179.258 148.594 178.78 139.527 178.976 130.486C177.672 130.477 176.384 130.469 175.097 130.46ZM175.958 160.017C176.436 161.921 176.921 163.825 177.271 165.764C177.322 163.764 177.535 161.782 177.757 159.8C177.305 159.852 176.41 159.965 175.958 160.017Z" fill="#1F5565"/>
<path d="M111.034 101.894C117.616 98.4337 126.253 104.363 125.861 111.821C126.117 118.341 119.364 123.914 113.174 122.34C108.451 121.393 104.546 116.803 104.751 111.804C104.529 107.57 107.309 103.589 111.034 101.894ZM112.612 105.953C112.433 106.884 112.262 107.805 112.1 108.727C111.461 108.796 110.19 108.927 109.551 108.996C109.534 110.848 109.551 112.708 109.577 114.577C110.199 114.629 111.444 114.742 112.066 114.803C112.271 115.681 112.518 116.559 112.791 117.429C114.445 117.768 116.184 117.768 117.855 117.455C118.06 116.551 118.239 115.647 118.392 114.734C119.04 114.734 120.336 114.742 120.984 114.751C121.035 112.882 121.197 111.004 120.924 109.144C120.021 108.796 119.083 108.579 118.119 108.475C118.111 107.831 118.102 106.536 118.094 105.893C116.261 105.893 114.436 105.919 112.612 105.953Z" fill="#C4FBFE"/>
<path d="M175.958 160.017C176.41 159.965 177.305 159.852 177.757 159.8C177.535 161.782 177.322 163.764 177.271 165.764C176.922 163.825 176.436 161.921 175.958 160.017Z" fill="#C4FBFE"/>
<path d="M132.067 101.85C138.76 101.372 145.504 101.737 152.214 101.685C152.111 102.502 152.001 103.319 151.898 104.145C145.794 104.032 139.681 104.215 133.577 104.084C132.306 104.145 130.959 103.085 132.067 101.85Z" fill="#235864"/>
<path d="M41.1403 105.31C48.6856 105.058 56.2394 105.362 63.7847 105.188C65.1147 104.962 66.1123 105.919 67.1353 106.605C64.535 108.205 61.4572 107.553 58.5925 107.623C52.8291 107.675 47.0657 107.701 41.3023 107.657C41.2426 106.875 41.1915 106.093 41.1403 105.31Z" fill="#1E596B"/>
<path d="M112.612 105.953C114.436 105.919 116.261 105.893 118.094 105.893C118.102 106.536 118.111 107.831 118.119 108.474C119.083 108.579 120.021 108.796 120.924 109.144C121.197 111.004 121.035 112.882 120.984 114.751C120.336 114.742 119.04 114.734 118.392 114.734C118.239 115.646 118.06 116.551 117.855 117.455C116.184 117.768 114.445 117.768 112.791 117.429C112.518 116.559 112.271 115.681 112.066 114.803C111.444 114.742 110.199 114.629 109.577 114.577C109.551 112.708 109.534 110.848 109.551 108.996C110.19 108.927 111.461 108.796 112.1 108.727C112.262 107.805 112.433 106.884 112.612 105.953ZM114.59 108.196C114.624 108.805 114.701 110.013 114.743 110.622C113.567 110.952 112.399 111.3 111.248 111.665C112.228 112.074 113.226 112.404 114.24 112.726C114.641 113.786 115.033 114.864 115.442 115.925C115.63 115.16 116.005 113.621 116.201 112.856C117.233 112.465 118.281 112.143 119.356 111.874C118.23 111.448 117.096 111.022 115.971 110.613C115.937 109.978 115.877 108.701 115.843 108.066L114.59 108.196Z" fill="#1F5A67"/>
<path d="M174.73 128.035C174.33 121.41 174.347 114.751 174.773 108.135C176.231 108.153 177.697 108.17 179.164 108.179C179.334 114.803 179.198 121.436 179.249 128.069C177.74 128.052 176.231 128.035 174.73 128.035Z" fill="#C6FFFF"/>
<path d="M21.2838 110.135C21.8295 110.126 22.9037 110.1 23.4494 110.091C25.2398 112.187 28.0021 112.534 30.5172 113.099C25.9133 116.281 19.9027 116.325 15.2646 113.195C16.8675 112.665 18.4874 112.169 20.1073 111.691C20.3972 111.3 20.994 110.526 21.2838 110.135Z" fill="#D1F7FE"/>
<path d="M40.7908 114.847C41.2853 114.203 41.1148 112.526 42.2998 112.812C49.4444 112.786 56.5975 112.821 63.7506 112.804C65.1233 112.778 67.7663 113.073 65.9417 114.89C57.5695 115.081 49.1631 115.125 40.7908 114.847Z" fill="#175262"/>
<path d="M7.26746 122.297C7.68522 121.297 7.63406 119.532 9.18575 119.958C25.325 119.854 41.4728 119.898 57.612 119.967C60.5023 120.063 63.563 119.385 66.3424 120.437C66.2571 120.889 66.0952 121.775 66.0099 122.227C62.6763 122.653 59.2916 122.436 55.9495 122.175C50.5953 122.679 45.2071 122.314 39.8444 122.419C28.9825 122.323 18.1207 122.592 7.26746 122.297Z" fill="#1B5668"/>
<path d="M131.982 119.393C138.658 119.28 145.325 119.385 152.001 119.306C152.035 120.115 152.06 120.932 152.086 121.741C145.453 121.819 138.811 121.784 132.17 121.758C132.127 121.167 132.033 119.984 131.982 119.393Z" fill="#1A5657"/>
<path d="M72.8987 120.071C74.2884 120.132 75.6696 120.193 77.0593 120.254C77.4771 123.462 77.7243 126.765 77.0422 129.964C76.5648 132.103 74.4419 133.155 72.9158 134.433C72.8561 129.643 72.9414 124.861 72.8987 120.071Z" fill="#C7F9FF"/>
<path d="M72.9158 140.588C74.3481 140.692 75.789 140.805 77.2298 140.944C77.4259 144.308 77.8863 147.821 76.8547 151.089C75.9595 152.767 74.2884 153.802 72.9158 155.027C72.8902 150.211 72.9073 145.395 72.9158 140.588Z" fill="#C7F9FF"/>
<path d="M7.41241 129.66C7.65966 128.626 7.51472 127.052 9.04936 127.391C26.9875 127.2 44.9428 127.391 62.8895 127.304C64.3389 127.269 65.7201 127.739 67.0756 128.208C66.2486 129.252 65.1574 130.06 63.7762 129.808C44.9939 129.608 26.1947 130.008 7.41241 129.66Z" fill="#215B67"/>
<path d="M107.582 130.46C105.544 128.93 108.281 127.913 109.696 128.148C123.874 128.391 138.087 127.696 152.239 128.487C152.197 129.008 152.103 130.043 152.052 130.564C137.234 130.53 122.391 130.808 107.582 130.46Z" fill="#1C5062"/>
<path d="M175.097 130.46C176.384 130.469 177.672 130.477 178.976 130.486C178.78 139.527 179.257 148.594 178.72 157.627C177.51 157.574 176.316 157.522 175.114 157.47C175.105 148.464 175.165 139.466 175.097 130.46Z" fill="#F8FEFF"/>
<path d="M7.65965 134.711C22.6394 134.667 37.6277 134.641 52.616 134.711C56.9556 134.989 61.3549 134.259 65.6604 134.894C66.0184 135.25 66.7261 135.963 67.0842 136.319C63.4863 137.623 59.6071 137.119 55.8899 136.867C39.8018 137.406 23.6796 137.041 7.5744 137.058C7.59145 136.467 7.63407 135.293 7.65965 134.711Z" fill="#285666"/>
<path d="M108.161 137.249C121.189 137.032 134.233 137.258 147.269 137.136C149.23 137.336 152.478 136.25 152.504 139.266C137.703 139.597 122.885 139.423 108.076 139.362C106.593 139.953 106.797 136.858 108.161 137.249Z" fill="#225362"/>
<path d="M7.67673 142.413C9.5183 141.718 11.5474 142.092 13.4742 142.013C21.6504 142.187 29.8437 141.796 38.0114 142.231C46.0171 141.805 54.0313 142.187 62.0455 142.005C63.725 142.144 66.4959 141.414 66.53 143.969C64.8419 144.752 62.9577 144.508 61.1673 144.561C43.8686 144.439 26.5698 144.587 9.27104 144.5C7.9325 144.743 7.08846 143.691 7.67673 142.413Z" fill="#1E5166"/>
<path d="M107.582 146.117C122.425 145.821 137.302 145.908 152.154 146.056C152.163 146.603 152.18 147.699 152.188 148.246C138.036 148.681 123.874 148.333 109.713 148.446C108.298 148.759 105.527 147.56 107.582 146.117Z" fill="#24586A"/>
<path d="M7.65968 149.62C26.0753 149.507 44.4824 149.629 62.898 149.542C64.4071 149.429 65.8991 149.733 67.0927 150.759C65.2085 152.437 62.6423 151.967 60.3659 152.028C42.7687 151.837 25.1716 152.202 7.58295 151.846C7.60852 151.289 7.64262 150.176 7.65968 149.62Z" fill="#165562"/>
<path d="M106.865 154.914C122.126 154.862 137.396 154.688 152.649 155.019C152.231 156.462 151.617 157.809 149.886 157.322C135.717 157.175 121.521 157.54 107.36 157.14C107.232 156.583 106.985 155.471 106.865 154.914Z" fill="#225765"/>
<path d="M7.19928 157.879C8.06038 156.775 9.67175 157.235 10.8739 157.062C28.5051 157.088 46.1279 157.114 63.7591 157.062C65.2426 156.714 66.1975 157.757 67.0416 158.835C65.1318 159.261 63.1709 159.409 61.2185 159.374C43.86 159.27 26.4931 159.409 9.13463 159.33C8.06891 159.461 7.42948 158.974 7.19928 157.879Z" fill="#1E5765"/>
<path d="M106.746 163.773C121.811 163.625 136.885 163.781 151.95 163.703C152.06 164.26 152.274 165.364 152.384 165.92C139.05 166.494 125.69 165.99 112.356 166.19C110.233 166.007 106.797 167.085 106.746 163.773Z" fill="#20576B"/>
<path d="M42.7687 179.542C46.6138 180.429 49.649 183.194 53.281 184.637C53.3151 185.211 53.3833 186.367 53.4174 186.941C49.47 186.115 46.1876 183.62 42.709 181.707C42.7261 181.159 42.7602 180.081 42.7687 179.542Z" fill="#2F585E"/>
<path d="M59.6412 190.174C59.8885 189.366 59.9823 188.331 60.9713 188.097C64.7396 189.253 68.5592 190.287 72.2167 191.791C71.7734 192.183 70.8782 192.974 70.4263 193.365C66.7091 192.835 63.2221 191.261 59.6412 190.174Z" fill="#2D5B5D"/>
<path d="M79.2419 192.922C82.5925 193.043 85.9432 193.443 89.2767 193.817C90.7773 193.713 90.8881 195.895 89.4643 196.182C85.8579 196.121 82.2856 195.512 78.6792 195.33C78.6536 194.46 78.2444 193.391 79.2419 192.922Z" fill="#2F525D"/>
<path d="M98.0412 193.887C101.417 193.148 104.896 192.982 108.323 192.609C109.346 192.591 109.27 194.008 109.756 194.66C105.612 195.53 101.358 196.182 97.1204 195.721C97.4018 195.095 97.7087 194.486 98.0412 193.887Z" fill="#23595F"/>
</svg>
